<svg width="505" height="173" viewBox="0 0 505 173" fill="none" xmlns="http://www.w3.org/2000/svg">
<g filter="url(#filter0_d_340_5)">
<path d="M155.875 71.4688C154.292 72.8021 152.885 73.8438 151.656 74.5938C150.448 75.3438 149.406 75.9062 148.531 76.2812C147.531 76.7188 146.656 76.9896 145.906 77.0938C144.865 77.3229 143.708 77.2812 142.438 76.9688C141.188 76.6771 139.865 76.1875 138.469 75.5C137.094 74.8125 135.688 73.9688 134.25 72.9688C132.812 71.9688 131.396 70.9062 130 69.7812C128.604 68.6354 127.25 67.4583 125.938 66.25C124.646 65.0417 123.448 63.8854 122.344 62.7812C121.26 61.6771 120.292 60.6667 119.438 59.75C118.604 58.8125 117.948 58.0417 117.469 57.4375C117.052 56.9167 116.719 56.4896 116.469 56.1562C116.24 55.8021 116.125 55.4583 116.125 55.125C116.125 54.8125 116.271 54.4583 116.562 54.0625C116.854 53.6458 117.354 53.1042 118.062 52.4375C118.438 52.0833 118.927 51.6146 119.531 51.0312C120.135 50.4271 120.802 49.75 121.531 49C122.281 48.25 123.062 47.4479 123.875 46.5938C124.708 45.7188 125.521 44.8333 126.312 43.9375C127.125 43.0417 127.896 42.1458 128.625 41.25C129.375 40.3542 130.021 39.5104 130.562 38.7188C131.125 37.9062 131.573 37.1771 131.906 36.5312C132.24 35.8646 132.406 35.3021 132.406 34.8438C132.406 34.2396 131.76 33.9375 130.469 33.9375C129.969 33.9375 129.49 33.9271 129.031 33.9062C128.635 33.9062 128.229 33.9062 127.812 33.9062C127.417 33.8854 127.104 33.8958 126.875 33.9375C127.958 33.3125 128.969 32.7292 129.906 32.1875C130.865 31.625 131.792 31.1458 132.688 30.75C133.604 30.3333 134.521 30.0104 135.438 29.7812C136.354 29.5312 137.323 29.4062 138.344 29.4062C138.802 29.4062 139.26 29.4271 139.719 29.4688C140.198 29.4896 140.698 29.5521 141.219 29.6562C140.26 31.3438 139.281 32.875 138.281 34.25C137.302 35.6042 136.312 36.8542 135.312 38C134.333 39.1458 133.354 40.1979 132.375 41.1562C131.417 42.1146 130.469 43.0312 129.531 43.9062C128.594 44.7604 127.688 45.5938 126.812 46.4062C125.938 47.2188 125.104 48.0625 124.312 48.9375C123.938 49.3125 123.771 49.7604 123.812 50.2812C123.875 50.8021 124.26 51.4583 124.969 52.25C126.073 53.4792 127.292 54.8229 128.625 56.2812C129.979 57.7188 131.417 59.1667 132.938 60.625C134.479 62.0833 136.083 63.5 137.75 64.875C139.438 66.25 141.156 67.4688 142.906 68.5312C144.656 69.5938 146.427 70.4479 148.219 71.0938C150.031 71.7188 151.833 72.0312 153.625 72.0312C154.562 72.0312 155.312 71.8438 155.875 71.4688ZM123.062 71.0625C121.833 71.8958 120.625 72.6667 119.438 73.375C118.25 74.0833 117.104 74.7083 116 75.25C114.917 75.7708 113.885 76.1979 112.906 76.5312C111.948 76.8646 111.062 77.0729 110.25 77.1562C109.438 77.2188 108.719 77.2292 108.094 77.1875C107.469 77.1667 106.948 77.0208 106.531 76.75C106.135 76.5 105.833 76.0938 105.625 75.5312C105.417 74.9479 105.312 74.1458 105.312 73.125C105.312 72.6042 105.312 71.6979 105.312 70.4062C105.333 69.1146 105.344 67.5833 105.344 65.8125C105.365 64.0208 105.385 62.0729 105.406 59.9688C105.427 57.8438 105.448 55.6979 105.469 53.5312C105.49 51.3646 105.51 49.25 105.531 47.1875C105.552 45.1042 105.573 43.2188 105.594 41.5312C105.615 39.8438 105.635 38.4271 105.656 37.2812C105.677 36.1146 105.698 35.3646 105.719 35.0312C105.74 34.6562 105.656 34.3438 105.469 34.0938C105.302 33.8438 105.062 33.6458 104.75 33.5C104.458 33.3333 104.104 33.2188 103.688 33.1562C103.271 33.0938 102.833 33.0625 102.375 33.0625C101.646 33.0625 100.854 33.1354 100 33.2812C99.1667 33.4062 98.375 33.5625 97.625 33.75C98.6667 33.0833 99.6979 32.4583 100.719 31.875C101.76 31.2708 102.802 30.75 103.844 30.3125C104.885 29.875 105.948 29.5312 107.031 29.2812C108.115 29.0312 109.229 28.9062 110.375 28.9062C110.833 28.9062 111.271 28.9375 111.688 29C112.104 29.0417 112.469 29.125 112.781 29.25C113.115 29.3542 113.375 29.5104 113.562 29.7188C113.75 29.9062 113.844 30.1458 113.844 30.4375C113.844 31.2292 113.833 33.1875 113.812 36.3125C113.812 37.6458 113.802 39.3021 113.781 41.2812C113.781 43.2604 113.771 45.6562 113.75 48.4688C113.75 51.2604 113.74 54.5104 113.719 58.2188C113.719 61.9062 113.719 66.1458 113.719 70.9375C114.802 71.125 115.792 71.2604 116.688 71.3438C117.604 71.4271 118.427 71.4688 119.156 71.4688C119.802 71.4688 120.365 71.4479 120.844 71.4062C121.323 71.3646 121.729 71.3229 122.062 71.2812C122.438 71.2188 122.771 71.1458 123.062 71.0625ZM166.281 72.5312L158.812 77.9062C159 73.8854 159.146 70.4583 159.25 67.625C159.354 64.7917 159.427 62.4583 159.469 60.625C159.531 58.4792 159.562 56.7083 159.562 55.3125C159.667 52.7917 159.323 50.8229 158.531 49.4062C157.74 47.9688 156.531 47.25 154.906 47.25C154.385 47.25 153.833 47.3333 153.25 47.5C152.688 47.6458 152.083 47.8646 151.438 48.1562C152.25 47.5729 153.104 46.9792 154 46.375C154.896 45.75 155.812 45.1875 156.75 44.6875C157.688 44.1875 158.625 43.7812 159.562 43.4688C160.521 43.1354 161.458 42.9688 162.375 42.9688C163.25 42.9688 164.042 43.1458 164.75 43.5C165.479 43.8542 166.031 44.4479 166.406 45.2812C166.74 45.9896 166.969 46.7812 167.094 47.6562C167.24 48.5312 167.333 49.4896 167.375 50.5312C168.438 49.4062 169.625 48.3542 170.938 47.375C172.271 46.3958 173.656 45.5625 175.094 44.875C176.531 44.1875 177.979 43.6771 179.438 43.3438C180.896 43.0104 182.271 42.9271 183.562 43.0938C184.5 43.2188 185.469 43.4792 186.469 43.875C187.49 44.2708 188.417 44.875 189.25 45.6875C190.104 46.5 190.792 47.5729 191.312 48.9062C191.833 50.2188 192.073 51.8646 192.031 53.8438C191.969 56.1771 191.865 58.3229 191.719 60.2812C191.573 62.2188 191.5 63.9375 191.5 65.4375C191.5 66.3333 191.573 67.1875 191.719 68C191.865 68.7917 192.115 69.4896 192.469 70.0938C192.844 70.6771 193.344 71.1458 193.969 71.5C194.594 71.8542 195.375 72.0312 196.312 72.0312C197.146 72.0312 198.021 71.875 198.938 71.5625C199.875 71.2292 200.812 70.7292 201.75 70.0625C200.229 71.4167 198.833 72.5521 197.562 73.4688C196.312 74.3854 195.146 75.125 194.062 75.6875C192.979 76.25 191.969 76.6458 191.031 76.875C190.094 77.125 189.188 77.2396 188.312 77.2188C187.438 77.1979 186.688 77.0208 186.062 76.6875C185.438 76.375 184.938 75.8854 184.562 75.2188C184.188 74.5312 183.927 73.6562 183.781 72.5938C183.635 71.5104 183.583 70.1875 183.625 68.625C183.688 67.25 183.771 65.7396 183.875 64.0938C183.979 62.4271 184.031 60.7812 184.031 59.1562C184.031 57.3021 183.906 55.7083 183.656 54.375C183.406 53.0417 182.948 51.9479 182.281 51.0938C181.635 50.2188 180.729 49.5729 179.562 49.1562C178.417 48.7396 176.938 48.5312 175.125 48.5312C173.812 48.5312 172.698 48.7917 171.781 49.3125C170.865 49.8125 170.104 50.5 169.5 51.375C168.896 52.25 168.417 53.2708 168.062 54.4375C167.729 55.5833 167.469 56.8125 167.281 58.125C167.115 59.4167 167 60.75 166.938 62.125C166.875 63.4792 166.823 64.7917 166.781 66.0625C166.76 67.3333 166.719 68.5312 166.656 69.6562C166.594 70.7604 166.469 71.7188 166.281 72.5312ZM241.656 57.8125C241.656 59.5417 241.417 61.1146 240.938 62.5312C240.458 63.9479 239.885 65.1875 239.219 66.25C238.552 67.3125 237.875 68.1979 237.188 68.9062C236.5 69.6146 235.948 70.125 235.531 70.4375C234.323 71.3125 233.083 72.1667 231.812 73C230.542 73.8333 229.229 74.5833 227.875 75.25C226.542 75.8958 225.167 76.4167 223.75 76.8125C222.333 77.2083 220.875 77.4062 219.375 77.4062C217.146 77.4062 215.031 77.125 213.031 76.5625C211.052 76 209.312 75.1562 207.812 74.0312C206.333 72.9062 205.156 71.4896 204.281 69.7812C203.427 68.0729 203 66.0729 203 63.7812C203 61.7604 203.344 59.8646 204.031 58.0938C204.74 56.3021 205.677 54.6562 206.844 53.1562C208.031 51.6562 209.417 50.3125 211 49.125C212.583 47.9167 214.26 46.8958 216.031 46.0625C217.802 45.2292 219.625 44.5938 221.5 44.1562C223.375 43.7188 225.188 43.5 226.938 43.5C229.104 43.5 231.083 43.8646 232.875 44.5938C234.688 45.3021 236.24 46.3021 237.531 47.5938C238.844 48.8646 239.854 50.375 240.562 52.125C241.292 53.875 241.656 55.7708 241.656 57.8125ZM220.094 47.125C219.031 47.125 218.062 47.3229 217.188 47.7188C216.312 48.0938 215.531 48.6146 214.844 49.2812C214.177 49.9271 213.594 50.6875 213.094 51.5625C212.615 52.4167 212.208 53.3229 211.875 54.2812C211.562 55.2188 211.323 56.1771 211.156 57.1562C211.01 58.1146 210.938 59.0208 210.938 59.875C210.938 61.8125 211.292 63.625 212 65.3125C212.708 66.9792 213.677 68.4375 214.906 69.6875C216.156 70.9375 217.604 71.9167 219.25 72.625C220.917 73.3333 222.688 73.6875 224.562 73.6875C225.729 73.6875 226.854 73.4688 227.938 73.0312C229.042 72.5729 230.01 71.8646 230.844 70.9062C231.698 69.9271 232.375 68.6771 232.875 67.1562C233.396 65.6146 233.656 63.7604 233.656 61.5938C233.656 59.6979 233.302 57.875 232.594 56.125C231.885 54.375 230.917 52.8333 229.688 51.5C228.458 50.1667 227.021 49.1042 225.375 48.3125C223.729 47.5208 221.969 47.125 220.094 47.125ZM301.125 41.8125C301.417 42.6875 301.656 43.5104 301.844 44.2812C302.052 45.0521 302.156 45.8542 302.156 46.6875C302.156 47.2917 302.083 47.9375 301.938 48.625C301.792 49.2917 301.552 50.0312 301.219 50.8438C300.885 51.6354 300.438 52.5104 299.875 53.4688C299.333 54.4271 298.646 55.5 297.812 56.6875C296.417 58.6667 295.167 60.4479 294.062 62.0312C292.958 63.5938 292 65 291.188 66.25C290.375 67.5 289.708 68.6146 289.188 69.5938C288.688 70.5521 288.344 71.4062 288.156 72.1562C287.448 72.5521 286.719 73.0208 285.969 73.5625C285.323 74.0417 284.604 74.6354 283.812 75.3438C283.042 76.0521 282.271 76.8854 281.5 77.8438C281.708 76.8854 281.708 75.8333 281.5 74.6875C281.292 73.5208 280.948 72.3125 280.469 71.0625C280.01 69.8125 279.458 68.5312 278.812 67.2188C278.167 65.8854 277.5 64.5729 276.812 63.2812C276.146 61.9896 275.5 60.7292 274.875 59.5C274.271 58.25 273.771 57.0729 273.375 55.9688C272.542 57.2188 271.646 58.5312 270.688 59.9062C269.729 61.2604 268.833 62.625 268 64C267.188 65.375 266.5 66.7188 265.938 68.0312C265.375 69.3229 265.073 70.5312 265.031 71.6562C264.448 71.9688 263.812 72.3958 263.125 72.9375C262.521 73.3958 261.823 74 261.031 74.75C260.24 75.4792 259.396 76.3854 258.5 77.4688C258.333 75.4479 258.052 73.4479 257.656 71.4688C257.281 69.4688 256.896 67.6562 256.5 66.0312C256.021 64.1562 255.521 62.3542 255 60.625C254.438 58.875 253.833 57.2604 253.188 55.7812C252.562 54.2812 251.885 52.9792 251.156 51.875C250.448 50.7708 249.677 49.9062 248.844 49.2812C248.031 48.6562 247.156 48.3438 246.219 48.3438C245.698 48.3438 245.177 48.4479 244.656 48.6562C244.156 48.8438 243.615 49.125 243.031 49.5C243.74 48.8125 244.521 48.0833 245.375 47.3125C246.25 46.5208 247.167 45.7917 248.125 45.125C249.083 44.4375 250.062 43.875 251.062 43.4375C252.083 43 253.094 42.7812 254.094 42.7812C254.76 42.7812 255.375 42.9375 255.938 43.25C256.5 43.5625 256.979 44.0521 257.375 44.7188C257.771 45.4062 258.302 46.4479 258.969 47.8438C259.635 49.2188 260.323 50.8333 261.031 52.6875C261.74 54.5208 262.396 56.5417 263 58.75C263.625 60.9583 264.094 63.2292 264.406 65.5625C265.406 64.25 266.344 62.875 267.219 61.4375C268.115 60 268.885 58.5312 269.531 57.0312C270.198 55.5104 270.719 53.9792 271.094 52.4375C271.49 50.875 271.688 49.3229 271.688 47.7812L278.812 42.0938C278.708 42.6562 278.688 43.2604 278.75 43.9062C278.833 44.5312 278.938 45.1146 279.062 45.6562C279.208 46.3021 279.396 46.9271 279.625 47.5312C279.792 48.0104 280.073 48.6771 280.469 49.5312C280.865 50.3854 281.323 51.3646 281.844 52.4688C282.365 53.5521 282.927 54.7188 283.531 55.9688C284.135 57.2188 284.729 58.4688 285.312 59.7188C285.896 60.9688 286.438 62.1771 286.938 63.3438C287.438 64.5104 287.865 65.5521 288.219 66.4688C289.01 65.2812 289.802 64.0625 290.594 62.8125C291.406 61.5417 292.125 60.2708 292.75 59C293.396 57.7083 293.917 56.4167 294.312 55.125C294.729 53.8333 294.938 52.5521 294.938 51.2812C294.938 50.6771 294.885 50.0625 294.781 49.4375C294.677 48.8125 294.49 48.1771 294.219 47.5312C295.385 46.7604 296.396 46.0312 297.25 45.3438C298.104 44.6354 298.823 44.0208 299.406 43.5C300.094 42.8958 300.667 42.3333 301.125 41.8125ZM330.5 70.25C328.417 71.6875 326.667 72.875 325.25 73.8125C323.833 74.7292 322.594 75.4583 321.531 76C320.49 76.5625 319.542 76.9479 318.688 77.1562C317.854 77.3646 316.969 77.4688 316.031 77.4688C315.219 77.4688 314.427 77.2708 313.656 76.875C312.906 76.5 312.229 75.8021 311.625 74.7812C311.042 73.7396 310.573 72.3229 310.219 70.5312C309.865 68.7188 309.688 66.3854 309.688 63.5312C309.688 60.7188 309.719 57.7708 309.781 54.6875C309.844 51.6042 309.906 48.5104 309.969 45.4062C310.052 42.3021 310.125 39.2604 310.188 36.2812C310.25 33.3021 310.281 30.5208 310.281 27.9375C310.281 25.3958 309.896 23.4167 309.125 22C308.354 20.5833 307.177 19.875 305.594 19.875C305.115 19.875 304.583 19.9479 304 20.0938C303.417 20.2188 302.802 20.4479 302.156 20.7812C302.969 20.1979 303.823 19.6042 304.719 19C305.615 18.375 306.521 17.8125 307.438 17.3125C308.375 16.8125 309.312 16.4062 310.25 16.0938C311.208 15.7604 312.156 15.5938 313.094 15.5938C314.281 15.5938 315.208 15.8958 315.875 16.5C316.562 17.0833 317.062 17.8125 317.375 18.6875C317.708 19.5625 317.906 20.5208 317.969 21.5625C318.052 22.5833 318.094 23.5312 318.094 24.4062C318.073 25.7396 318.042 27.3438 318 29.2188C317.979 31.0938 317.948 33.1146 317.906 35.2812C317.865 37.4271 317.823 39.6562 317.781 41.9688C317.74 44.2812 317.698 46.5521 317.656 48.7812C317.615 50.9896 317.573 53.0938 317.531 55.0938C317.51 57.0938 317.479 58.8542 317.438 60.375C317.396 62.4167 317.542 64.1875 317.875 65.6875C318.208 67.1667 318.688 68.3854 319.312 69.3438C319.938 70.3021 320.688 71.0104 321.562 71.4688C322.438 71.9271 323.406 72.1562 324.469 72.1562C326.385 72.1562 328.396 71.5208 330.5 70.25ZM370.594 46.1875C368.198 47.3542 365.969 48.3958 363.906 49.3125C361.865 50.2083 360.062 50.9688 358.5 51.5938C356.688 52.3229 355.021 52.9688 353.5 53.5312C352.562 53.9271 351.521 54.3333 350.375 54.75C349.25 55.1458 348.073 55.5417 346.844 55.9375C345.615 56.3125 344.354 56.6979 343.062 57.0938C341.792 57.4688 340.531 57.8438 339.281 58.2188V58.8438C339.281 60.9896 339.615 62.9167 340.281 64.625C340.969 66.3333 341.917 67.7917 343.125 69C344.333 70.1875 345.781 71.1042 347.469 71.75C349.156 72.375 351.021 72.6875 353.062 72.6875C354.125 72.6875 355.177 72.6042 356.219 72.4375C357.281 72.2708 358.281 72.0521 359.219 71.7812C360.177 71.4896 361.073 71.1458 361.906 70.75C362.74 70.3542 363.479 69.9271 364.125 69.4688C362.542 70.8854 360.906 72.0729 359.219 73.0312C357.552 73.9896 355.875 74.7708 354.188 75.375C352.521 75.9583 350.865 76.3854 349.219 76.6562C347.594 76.9271 346.031 77.0729 344.531 77.0938C343.01 77.1354 341.51 76.8958 340.031 76.375C338.573 75.875 337.24 75.1042 336.031 74.0625C334.823 73.0208 333.802 71.7292 332.969 70.1875C332.135 68.625 331.594 66.8125 331.344 64.75C331.24 64.0208 331.188 63.3229 331.188 62.6562C331.208 61.9688 331.281 61.2917 331.406 60.625C330.677 60.8958 330.01 61.1458 329.406 61.375C328.823 61.6042 328.344 61.8333 327.969 62.0625C328.573 61.6458 329.177 61.2604 329.781 60.9062C330.385 60.5312 330.979 60.1875 331.562 59.875C331.917 58.25 332.521 56.6979 333.375 55.2188C334.25 53.7396 335.292 52.3646 336.5 51.0938C337.729 49.8229 339.094 48.6771 340.594 47.6562C342.094 46.6146 343.646 45.7292 345.25 45C346.875 44.2708 348.521 43.7083 350.188 43.3125C351.854 42.9167 353.469 42.7188 355.031 42.7188C356.073 42.7188 356.948 42.875 357.656 43.1875C358.385 43.5 358.875 44.0521 359.125 44.8438C359.25 45.6771 358.948 46.5729 358.219 47.5312C357.906 47.9479 357.479 48.3958 356.938 48.875C356.417 49.3333 355.729 49.8229 354.875 50.3438C354.042 50.8646 353.031 51.4062 351.844 51.9688C350.677 52.5312 349.292 53.0938 347.688 53.6562L370.594 46.1875ZM345.812 53.7812C346.708 53.3854 347.51 52.9583 348.219 52.5C348.948 52.0417 349.51 51.5625 349.906 51.0625C350.323 50.5625 350.542 50.0417 350.562 49.5C350.583 48.9583 350.365 48.3854 349.906 47.7812C349.594 47.3229 349.156 47.0104 348.594 46.8438C348.052 46.6562 347.49 46.5625 346.906 46.5625C346.365 46.5625 345.844 46.625 345.344 46.75C344.844 46.8542 344.406 47 344.031 47.1875C343.781 47.3333 343.438 47.6562 343 48.1562C342.562 48.6354 342.115 49.2708 341.656 50.0625C341.198 50.8333 340.76 51.7396 340.344 52.7812C339.948 53.8021 339.656 54.9271 339.469 56.1562C340.781 55.6771 341.969 55.25 343.031 54.875C344.094 54.5 345.021 54.1354 345.812 53.7812ZM414.031 71.6562C411.219 73.5729 408.823 74.9479 406.844 75.7812C404.865 76.6146 403.188 77.0312 401.812 77.0312C401.25 77.0312 400.667 76.9375 400.062 76.75C399.479 76.5833 398.917 76.2917 398.375 75.875C397.833 75.4375 397.333 74.8646 396.875 74.1562C396.438 73.4271 396.094 72.5104 395.844 71.4062C394.823 72.1562 393.688 72.8958 392.438 73.625C391.208 74.3542 389.938 75.0104 388.625 75.5938C387.312 76.1771 385.99 76.6458 384.656 77C383.344 77.3542 382.083 77.5312 380.875 77.5312C378.833 77.5312 377 77.1146 375.375 76.2812C373.75 75.4688 372.365 74.3854 371.219 73.0312C370.094 71.6771 369.219 70.1354 368.594 68.4062C367.99 66.6771 367.688 64.8958 367.688 63.0625C367.688 61.0208 368 59.1979 368.625 57.5938C369.271 55.9688 370.135 54.5312 371.219 53.2812C372.323 52.0104 373.594 50.8958 375.031 49.9375C376.469 48.9583 378 48.1042 379.625 47.375C381.25 46.6458 382.917 46.0104 384.625 45.4688C386.333 44.9062 387.99 44.3958 389.594 43.9375C389.74 43.9167 389.917 43.8958 390.125 43.875C390.292 43.8542 390.49 43.8438 390.719 43.8438C390.969 43.8229 391.25 43.8125 391.562 43.8125C392.146 43.8125 392.802 43.8542 393.531 43.9375C394.281 44 395.073 44.125 395.906 44.3125L396.562 24.5938C396.521 23.4479 396.312 22.4688 395.938 21.6562C395.771 21.3229 395.562 21.0104 395.312 20.7188C395.062 20.4062 394.75 20.1667 394.375 20C394.021 19.8333 393.583 19.7396 393.062 19.7188C392.562 19.6979 391.979 19.7917 391.312 20C392.125 19.625 392.99 19.2083 393.906 18.75C394.823 18.2708 395.729 17.8333 396.625 17.4375C397.542 17.0208 398.427 16.6771 399.281 16.4062C400.156 16.1146 400.958 15.9688 401.688 15.9688C402.479 15.9688 403.135 16.1771 403.656 16.5938C404.198 17.0104 404.5 17.6562 404.562 18.5312C404.625 19.1146 404.656 19.9167 404.656 20.9375C404.677 21.9583 404.688 23.1771 404.688 24.5938C404.688 26.2812 404.667 28.1667 404.625 30.25C404.604 32.3125 404.573 34.4688 404.531 36.7188C404.49 38.9688 404.438 41.2604 404.375 43.5938C404.312 45.9271 404.26 48.2083 404.219 50.4375C404.177 52.6667 404.135 54.7917 404.094 56.8125C404.073 58.8125 404.062 60.6042 404.062 62.1875C404.062 63.4375 404.135 64.6667 404.281 65.875C404.448 67.0833 404.76 68.1667 405.219 69.125C405.698 70.0833 406.354 70.8646 407.188 71.4688C408.042 72.0521 409.167 72.3438 410.562 72.3438C411.083 72.3438 411.625 72.2917 412.188 72.1875C412.771 72.0833 413.385 71.9062 414.031 71.6562ZM395.719 51.1562C394.99 50.5312 394.208 50.0104 393.375 49.5938C392.542 49.1771 391.677 48.8438 390.781 48.5938C389.906 48.3229 389.021 48.1354 388.125 48.0312C387.25 47.9062 386.396 47.8438 385.562 47.8438C383.75 47.8438 382.198 48.1146 380.906 48.6562C379.635 49.1979 378.594 49.9688 377.781 50.9688C376.969 51.9688 376.375 53.1667 376 54.5625C375.625 55.9583 375.438 57.5104 375.438 59.2188C375.438 61.0521 375.719 62.7917 376.281 64.4375C376.865 66.0625 377.677 67.5 378.719 68.75C379.76 69.9792 381.021 70.9583 382.5 71.6875C384 72.3958 385.656 72.75 387.469 72.75C388.76 72.75 389.865 72.5938 390.781 72.2812C391.698 71.9479 392.458 71.5 393.062 70.9375C393.688 70.3542 394.188 69.6562 394.562 68.8438C394.938 68.0312 395.24 67.1354 395.469 66.1562C395.469 65.3438 395.469 64.3958 395.469 63.3125C395.49 62.2083 395.51 61.0208 395.531 59.75C395.573 58.4583 395.604 57.0938 395.625 55.6562C395.646 54.1979 395.677 52.6979 395.719 51.1562ZM450.812 44.5625C450.75 47.2292 450.698 49.625 450.656 51.75C450.615 53.8542 450.573 55.7396 450.531 57.4062C450.51 59.0729 450.49 60.5312 450.469 61.7812C450.448 63.0104 450.438 64.0729 450.438 64.9688C450.417 67.0521 450.417 68.5312 450.438 69.4062C450.396 71.7188 450.365 73.75 450.344 75.5C450.323 77.25 450.208 78.8125 450 80.1875C449.812 81.5625 449.479 82.7708 449 83.8125C448.542 84.875 447.844 85.8542 446.906 86.75C445.281 88.3125 443.583 89.8646 441.812 91.4062C440.062 92.9688 438.24 94.3646 436.344 95.5938C434.469 96.8438 432.51 97.8438 430.469 98.5938C428.427 99.3646 426.312 99.75 424.125 99.75C422.812 99.75 421.427 99.5521 419.969 99.1562C418.51 98.7812 417.156 98.2188 415.906 97.4688C414.677 96.7188 413.667 95.7812 412.875 94.6562C412.062 93.5312 411.656 92.2188 411.656 90.7188C411.656 89.5312 412.01 88.375 412.719 87.25C413.406 86.1458 414.438 85.125 415.812 84.1875C416.604 83.625 417.5 82.9896 418.5 82.2812C419.375 81.6771 420.417 80.9583 421.625 80.125C422.854 79.2917 424.24 78.3646 425.781 77.3438C424.198 77.2188 422.812 76.7604 421.625 75.9688C420.438 75.1771 419.438 74.1875 418.625 73C417.833 71.8125 417.24 70.5104 416.844 69.0938C416.448 67.6562 416.25 66.2292 416.25 64.8125C416.25 63.7083 416.333 62.6146 416.5 61.5312C416.667 60.4479 416.875 59.4375 417.125 58.5C417.396 57.5417 417.698 56.6771 418.031 55.9062C418.385 55.1146 418.75 54.4688 419.125 53.9688C419.854 52.9688 420.75 52.0208 421.812 51.125C422.896 50.2083 424.073 49.375 425.344 48.625C426.615 47.8542 427.948 47.1667 429.344 46.5625C430.74 45.9583 432.125 45.4479 433.5 45.0312C434.875 44.5938 436.208 44.2604 437.5 44.0312C438.792 43.8021 439.969 43.6875 441.031 43.6875C442.198 43.6875 443.594 43.75 445.219 43.875C446.865 43.9792 448.729 44.2083 450.812 44.5625ZM442.375 48.9375C441.125 48.6458 439.792 48.4375 438.375 48.3125C436.958 48.1667 435.604 48.0938 434.312 48.0938C432.562 48.0938 431.031 48.2708 429.719 48.625C428.427 48.9792 427.344 49.625 426.469 50.5625C425.615 51.5 424.969 52.7812 424.531 54.4062C424.094 56.0312 423.875 58.1042 423.875 60.625C423.875 62 424.073 63.3646 424.469 64.7188C424.865 66.0729 425.438 67.2917 426.188 68.375C426.958 69.4583 427.896 70.3438 429 71.0312C430.125 71.6979 431.406 72.0312 432.844 72.0312C434.24 72.0312 435.458 71.8125 436.5 71.375C437.562 70.9375 438.469 70.3438 439.219 69.5938C439.969 68.8438 440.583 67.9688 441.062 66.9688C441.562 65.9688 441.958 64.9062 442.25 63.7812C442.25 62.0104 442.26 59.9271 442.281 57.5312C442.302 55.1146 442.333 52.25 442.375 48.9375ZM420.406 83.2812C419.302 84.3646 418.75 85.5 418.75 86.6875C418.75 87.6042 418.99 88.4167 419.469 89.125C419.969 89.8333 420.604 90.4583 421.375 91C422.167 91.5417 423.052 91.9896 424.031 92.3438C425.01 92.7188 425.99 93.0208 426.969 93.25C427.969 93.4792 428.917 93.6458 429.812 93.75C430.708 93.8542 431.458 93.9062 432.062 93.9062C433.438 93.9062 434.708 93.7812 435.875 93.5312C437.042 93.2812 437.948 92.9167 438.594 92.4375C439.302 91.8958 439.885 90.8958 440.344 89.4375C440.802 88 441.167 86.2292 441.438 84.125C441.708 82.0417 441.896 79.6979 442 77.0938C442.125 74.4896 442.208 71.7604 442.25 68.9062C441.188 69.9479 440.073 70.9479 438.906 71.9062C437.76 72.8646 436.573 73.7292 435.344 74.5C434.115 75.25 432.865 75.875 431.594 76.375C430.323 76.875 429.052 77.1979 427.781 77.3438C426.531 78.2812 425.438 79.1042 424.5 79.8125C423.583 80.5417 422.823 81.1667 422.219 81.6875C421.51 82.2917 420.906 82.8229 420.406 83.2812ZM500.031 46.1875C497.635 47.3542 495.406 48.3958 493.344 49.3125C491.302 50.2083 489.5 50.9688 487.938 51.5938C486.125 52.3229 484.458 52.9688 482.938 53.5312C482 53.9271 480.958 54.3333 479.812 54.75C478.688 55.1458 477.51 55.5417 476.281 55.9375C475.052 56.3125 473.792 56.6979 472.5 57.0938C471.229 57.4688 469.969 57.8438 468.719 58.2188V58.8438C468.719 60.9896 469.052 62.9167 469.719 64.625C470.406 66.3333 471.354 67.7917 472.562 69C473.771 70.1875 475.219 71.1042 476.906 71.75C478.594 72.375 480.458 72.6875 482.5 72.6875C483.562 72.6875 484.615 72.6042 485.656 72.4375C486.719 72.2708 487.719 72.0521 488.656 71.7812C489.615 71.4896 490.51 71.1458 491.344 70.75C492.177 70.3542 492.917 69.9271 493.562 69.4688C491.979 70.8854 490.344 72.0729 488.656 73.0312C486.99 73.9896 485.312 74.7708 483.625 75.375C481.958 75.9583 480.302 76.3854 478.656 76.6562C477.031 76.9271 475.469 77.0729 473.969 77.0938C472.448 77.1354 470.948 76.8958 469.469 76.375C468.01 75.875 466.677 75.1042 465.469 74.0625C464.26 73.0208 463.24 71.7292 462.406 70.1875C461.573 68.625 461.031 66.8125 460.781 64.75C460.677 64.0208 460.625 63.3229 460.625 62.6562C460.646 61.9688 460.719 61.2917 460.844 60.625C460.115 60.8958 459.448 61.1458 458.844 61.375C458.26 61.6042 457.781 61.8333 457.406 62.0625C458.01 61.6458 458.615 61.2604 459.219 60.9062C459.823 60.5312 460.417 60.1875 461 59.875C461.354 58.25 461.958 56.6979 462.812 55.2188C463.688 53.7396 464.729 52.3646 465.938 51.0938C467.167 49.8229 468.531 48.6771 470.031 47.6562C471.531 46.6146 473.083 45.7292 474.688 45C476.312 44.2708 477.958 43.7083 479.625 43.3125C481.292 42.9167 482.906 42.7188 484.469 42.7188C485.51 42.7188 486.385 42.875 487.094 43.1875C487.823 43.5 488.312 44.0521 488.562 44.8438C488.688 45.6771 488.385 46.5729 487.656 47.5312C487.344 47.9479 486.917 48.3958 486.375 48.875C485.854 49.3333 485.167 49.8229 484.312 50.3438C483.479 50.8646 482.469 51.4062 481.281 51.9688C480.115 52.5312 478.729 53.0938 477.125 53.6562L500.031 46.1875ZM475.25 53.7812C476.146 53.3854 476.948 52.9583 477.656 52.5C478.385 52.0417 478.948 51.5625 479.344 51.0625C479.76 50.5625 479.979 50.0417 480 49.5C480.021 48.9583 479.802 48.3854 479.344 47.7812C479.031 47.3229 478.594 47.0104 478.031 46.8438C477.49 46.6562 476.927 46.5625 476.344 46.5625C475.802 46.5625 475.281 46.625 474.781 46.75C474.281 46.8542 473.844 47 473.469 47.1875C473.219 47.3333 472.875 47.6562 472.438 48.1562C472 48.6354 471.552 49.2708 471.094 50.0625C470.635 50.8333 470.198 51.7396 469.781 52.7812C469.385 53.8021 469.094 54.9271 468.906 56.1562C470.219 55.6771 471.406 55.25 472.469 54.875C473.531 54.5 474.458 54.1354 475.25 53.7812Z" fill="black"/>
</g>
<g filter="url(#filter1_d_340_5)">
<path d="M42.9688 127.219C42.7396 129.115 42.1458 130.906 41.1875 132.594C40.25 134.281 39.0729 135.844 37.6562 137.281C36.2396 138.719 34.6458 140.021 32.875 141.188C31.1042 142.333 29.2708 143.302 27.375 144.094C25.5 144.906 23.6146 145.531 21.7188 145.969C19.8229 146.406 18.0521 146.625 16.4062 146.625C15.5938 146.604 14.7708 146.552 13.9375 146.469C13.2083 146.385 12.3958 146.26 11.5 146.094C10.6042 145.948 9.71875 145.719 8.84375 145.406L10.25 103.562C9.375 103.562 8.42708 103.531 7.40625 103.469C6.38542 103.406 5.27083 103.302 4.0625 103.156L12.0625 98.625C12.7917 98.75 13.5 98.8333 14.1875 98.875C14.8958 98.9167 15.5521 98.9375 16.1562 98.9375C17.2396 98.9375 18.2917 98.875 19.3125 98.75C20.3333 98.6042 21.3333 98.4479 22.3125 98.2812C23.2917 98.0938 24.2604 97.9375 25.2188 97.8125C26.1771 97.6667 27.1458 97.5938 28.125 97.5938C29.7292 97.5938 31.1979 97.8229 32.5312 98.2812C33.8854 98.7188 35.0417 99.375 36 100.25C36.9792 101.104 37.7188 102.156 38.2188 103.406C38.7396 104.656 38.9792 106.094 38.9375 107.719C38.8333 108.76 38.4688 109.844 37.8438 110.969C37.5729 111.448 37.2396 111.958 36.8438 112.5C36.4479 113.042 35.9583 113.594 35.375 114.156C34.7917 114.719 34.1146 115.281 33.3438 115.844C32.5729 116.406 31.6875 116.958 30.6875 117.5C31.0625 117.458 31.4271 117.427 31.7812 117.406C32.1354 117.385 32.4688 117.375 32.7812 117.375C34.1354 117.375 35.3125 117.521 36.3125 117.812C37.3333 118.083 38.2083 118.458 38.9375 118.938C39.6875 119.396 40.3021 119.917 40.7812 120.5C41.2604 121.083 41.6458 121.688 41.9375 122.312C42.625 123.771 42.9688 125.406 42.9688 127.219ZM24.4062 141.812C26.1146 141.812 27.625 141.573 28.9375 141.094C30.25 140.615 31.3542 139.927 32.25 139.031C33.1458 138.115 33.8229 137.01 34.2812 135.719C34.7396 134.406 34.9688 132.917 34.9688 131.25C34.9688 129.833 34.7292 128.531 34.25 127.344C33.7708 126.135 33.0938 125.104 32.2188 124.25C31.3646 123.375 30.3542 122.698 29.1875 122.219C28.0208 121.719 26.75 121.469 25.375 121.469C24.8542 121.469 24.3229 121.521 23.7812 121.625C23.2604 121.729 22.7396 121.917 22.2188 122.188C23.9896 121.25 25.4375 120.292 26.5625 119.312C27.6875 118.312 28.5625 117.333 29.1875 116.375C29.8333 115.396 30.2708 114.448 30.5 113.531C30.75 112.615 30.875 111.76 30.875 110.969C30.875 109.781 30.6562 108.677 30.2188 107.656C29.8021 106.615 29.2292 105.719 28.5 104.969C27.7708 104.198 26.9062 103.604 25.9062 103.188C24.9062 102.75 23.8333 102.531 22.6875 102.531C21.8958 102.531 21.1458 102.573 20.4375 102.656C19.7292 102.719 19.0208 102.802 18.3125 102.906L16.9062 140.594C18.4062 141.052 19.7708 141.375 21 141.562C22.2292 141.729 23.3646 141.812 24.4062 141.812ZM92.6562 139.188C91.7812 140.062 90.8333 140.865 89.8125 141.594C88.8125 142.302 87.8021 142.917 86.7812 143.438C85.7604 143.958 84.7708 144.375 83.8125 144.688C82.8542 145 81.9792 145.177 81.1875 145.219C80.75 145.26 80.1875 145.25 79.5 145.188C78.8125 145.146 78.1458 144.969 77.5 144.656C76.875 144.344 76.3333 143.854 75.875 143.188C75.4167 142.521 75.1875 141.573 75.1875 140.344V136.625C74.0417 137.75 72.8333 138.833 71.5625 139.875C70.2917 140.896 68.9792 141.812 67.625 142.625C66.2917 143.417 64.9375 144.042 63.5625 144.5C62.1875 144.979 60.8333 145.219 59.5 145.219C57.7917 145.219 56.2917 144.833 55 144.062C53.7083 143.312 52.625 142.333 51.75 141.125C50.875 139.917 50.2188 138.562 49.7812 137.062C49.3438 135.562 49.125 134.073 49.125 132.594C49.125 131.49 49.2083 130.406 49.375 129.344C49.5417 128.26 49.75 127.24 50 126.281C50.2708 125.323 50.5729 124.458 50.9062 123.688C51.2604 122.917 51.625 122.281 52 121.781C52.6875 120.844 53.5625 119.938 54.625 119.062C55.6875 118.188 56.8438 117.365 58.0938 116.594C59.3646 115.823 60.7083 115.125 62.125 114.5C63.5417 113.875 64.9479 113.333 66.3438 112.875C67.7604 112.417 69.1354 112.062 70.4688 111.812C71.8021 111.562 73.0312 111.438 74.1562 111.438C75.3229 111.438 76.6979 111.5 78.2812 111.625C79.8646 111.729 81.6667 111.958 83.6875 112.312C83.6042 114.708 83.5312 116.823 83.4688 118.656C83.4062 120.49 83.3542 122.135 83.3125 123.594C83.2708 125.031 83.2396 126.344 83.2188 127.531C83.1979 128.719 83.1875 129.875 83.1875 131C83.1875 132.146 83.1667 133.271 83.125 134.375C83.0833 135.479 83.1667 136.469 83.375 137.344C83.5833 138.219 83.9896 138.927 84.5938 139.469C85.2188 140.01 86.1771 140.281 87.4688 140.281C88.2396 140.281 89.0625 140.188 89.9375 140C90.8125 139.792 91.7188 139.521 92.6562 139.188ZM75.25 116.812C74 116.479 72.6667 116.25 71.25 116.125C69.8333 115.979 68.4792 115.906 67.1875 115.906C66.4792 115.906 65.8021 115.927 65.1562 115.969C64.5312 116.01 63.9583 116.062 63.4375 116.125C62.9167 116.188 62.4583 116.271 62.0625 116.375C61.6667 116.458 61.3646 116.562 61.1562 116.688C60.7812 116.875 60.3438 117.333 59.8438 118.062C59.3438 118.771 58.8646 119.656 58.4062 120.719C57.9479 121.781 57.5521 122.979 57.2188 124.312C56.9062 125.646 56.75 127.021 56.75 128.438C56.75 129.792 56.9479 131.156 57.3438 132.531C57.7396 133.885 58.3125 135.104 59.0625 136.188C59.8333 137.271 60.7708 138.156 61.875 138.844C63 139.51 64.2812 139.844 65.7188 139.844C67.0729 139.844 68.2708 139.625 69.3125 139.188C70.3542 138.75 71.2604 138.156 72.0312 137.406C72.8021 136.635 73.4375 135.74 73.9375 134.719C74.4583 133.698 74.875 132.594 75.1875 131.406C75.1875 130.531 75.1875 129.604 75.1875 128.625C75.1875 127.625 75.1875 126.531 75.1875 125.344C75.1875 124.156 75.1875 122.865 75.1875 121.469C75.2083 120.052 75.2292 118.5 75.25 116.812ZM123.062 131.406C123.062 132.844 122.677 134.188 121.906 135.438C121.156 136.667 120.167 137.802 118.938 138.844C117.708 139.885 116.312 140.802 114.75 141.594C113.208 142.385 111.635 143.052 110.031 143.594C108.427 144.135 106.875 144.531 105.375 144.781C103.875 145.031 102.562 145.115 101.438 145.031C100.458 144.99 99.4271 144.833 98.3438 144.562C97.2812 144.312 96.3333 144 95.5 143.625C94.6875 143.25 94.0729 142.844 93.6562 142.406C93.2604 141.969 93.25 141.542 93.625 141.125C94 140.729 94.4062 140.333 94.8438 139.938C95.2812 139.542 95.8021 139.135 96.4062 138.719C97.0104 138.281 97.7292 137.823 98.5625 137.344C99.3958 136.865 100.396 136.333 101.562 135.75C101.188 136.333 101.094 136.844 101.281 137.281C101.469 137.719 101.812 138.115 102.312 138.469C102.833 138.802 103.458 139.083 104.188 139.312C104.938 139.542 105.667 139.729 106.375 139.875C107.104 140.021 107.76 140.125 108.344 140.188C108.948 140.25 109.375 140.281 109.625 140.281C110.375 140.281 111.115 140.25 111.844 140.188C112.594 140.104 113.26 139.938 113.844 139.688C114.427 139.438 114.896 139.073 115.25 138.594C115.625 138.094 115.812 137.417 115.812 136.562C115.812 135.521 115.521 134.635 114.938 133.906C114.375 133.177 113.625 132.573 112.688 132.094C111.771 131.594 110.74 131.198 109.594 130.906C108.448 130.615 107.302 130.375 106.156 130.188C105.031 129.979 103.958 129.812 102.938 129.688C101.938 129.542 101.115 129.385 100.469 129.219C99.4271 128.948 98.5521 128.594 97.8438 128.156C97.1562 127.698 96.5938 127.198 96.1562 126.656C95.7396 126.094 95.4375 125.5 95.25 124.875C95.0625 124.25 94.9688 123.625 94.9688 123C94.9688 121.604 95.3438 120.312 96.0938 119.125C96.8438 117.938 97.8229 116.865 99.0312 115.906C100.24 114.948 101.604 114.104 103.125 113.375C104.667 112.646 106.219 112.031 107.781 111.531C109.365 111.031 110.896 110.656 112.375 110.406C113.854 110.156 115.135 110.031 116.219 110.031C117.469 110.031 118.573 110.104 119.531 110.25C120.51 110.375 121.302 110.531 121.906 110.719C122.49 110.906 122.854 111.146 123 111.438C123.167 111.729 123.167 112.062 123 112.438C122.854 112.812 122.562 113.219 122.125 113.656C121.688 114.094 121.167 114.542 120.562 115C120.083 115.375 119.573 115.729 119.031 116.062C118.552 116.354 118.021 116.656 117.438 116.969C116.854 117.26 116.25 117.521 115.625 117.75C115.938 117.354 116.062 117 116 116.688C115.958 116.375 115.771 116.094 115.438 115.844C115.104 115.594 114.656 115.385 114.094 115.219C113.531 115.031 112.906 114.885 112.219 114.781C111.531 114.656 110.802 114.573 110.031 114.531C109.281 114.469 108.542 114.438 107.812 114.438C107.104 114.438 106.396 114.469 105.688 114.531C104.979 114.573 104.344 114.708 103.781 114.938C103.219 115.146 102.76 115.479 102.406 115.938C102.052 116.396 101.875 117.021 101.875 117.812C101.875 118.458 102.021 119.135 102.312 119.844C102.604 120.531 103.031 121.188 103.594 121.812C104.177 122.417 104.896 122.958 105.75 123.438C106.604 123.917 107.594 124.26 108.719 124.469C109.594 124.635 110.562 124.76 111.625 124.844C112.688 124.927 113.75 125.031 114.812 125.156C115.875 125.281 116.896 125.458 117.875 125.688C118.875 125.917 119.76 126.26 120.531 126.719C121.302 127.177 121.917 127.781 122.375 128.531C122.833 129.281 123.062 130.24 123.062 131.406ZM169.719 114.188C167.323 115.354 165.094 116.396 163.031 117.312C160.99 118.208 159.188 118.969 157.625 119.594C155.812 120.323 154.146 120.969 152.625 121.531C151.688 121.927 150.646 122.333 149.5 122.75C148.375 123.146 147.198 123.542 145.969 123.938C144.74 124.312 143.479 124.698 142.188 125.094C140.917 125.469 139.656 125.844 138.406 126.219V126.844C138.406 128.99 138.74 130.917 139.406 132.625C140.094 134.333 141.042 135.792 142.25 137C143.458 138.188 144.906 139.104 146.594 139.75C148.281 140.375 150.146 140.688 152.188 140.688C153.25 140.688 154.302 140.604 155.344 140.438C156.406 140.271 157.406 140.052 158.344 139.781C159.302 139.49 160.198 139.146 161.031 138.75C161.865 138.354 162.604 137.927 163.25 137.469C161.667 138.885 160.031 140.073 158.344 141.031C156.677 141.99 155 142.771 153.312 143.375C151.646 143.958 149.99 144.385 148.344 144.656C146.719 144.927 145.156 145.073 143.656 145.094C142.135 145.135 140.635 144.896 139.156 144.375C137.698 143.875 136.365 143.104 135.156 142.062C133.948 141.021 132.927 139.729 132.094 138.188C131.26 136.625 130.719 134.812 130.469 132.75C130.365 132.021 130.312 131.323 130.312 130.656C130.333 129.969 130.406 129.292 130.531 128.625C129.802 128.896 129.135 129.146 128.531 129.375C127.948 129.604 127.469 129.833 127.094 130.062C127.698 129.646 128.302 129.26 128.906 128.906C129.51 128.531 130.104 128.188 130.688 127.875C131.042 126.25 131.646 124.698 132.5 123.219C133.375 121.74 134.417 120.365 135.625 119.094C136.854 117.823 138.219 116.677 139.719 115.656C141.219 114.615 142.771 113.729 144.375 113C146 112.271 147.646 111.708 149.312 111.312C150.979 110.917 152.594 110.719 154.156 110.719C155.198 110.719 156.073 110.875 156.781 111.188C157.51 111.5 158 112.052 158.25 112.844C158.375 113.677 158.073 114.573 157.344 115.531C157.031 115.948 156.604 116.396 156.062 116.875C155.542 117.333 154.854 117.823 154 118.344C153.167 118.865 152.156 119.406 150.969 119.969C149.802 120.531 148.417 121.094 146.812 121.656L169.719 114.188ZM144.938 121.781C145.833 121.385 146.635 120.958 147.344 120.5C148.073 120.042 148.635 119.562 149.031 119.062C149.448 118.562 149.667 118.042 149.688 117.5C149.708 116.958 149.49 116.385 149.031 115.781C148.719 115.323 148.281 115.01 147.719 114.844C147.177 114.656 146.615 114.562 146.031 114.562C145.49 114.562 144.969 114.625 144.469 114.75C143.969 114.854 143.531 115 143.156 115.188C142.906 115.333 142.562 115.656 142.125 116.156C141.688 116.635 141.24 117.271 140.781 118.062C140.323 118.833 139.885 119.74 139.469 120.781C139.073 121.802 138.781 122.927 138.594 124.156C139.906 123.677 141.094 123.25 142.156 122.875C143.219 122.5 144.146 122.135 144.938 121.781Z" fill="black"/>
</g>
<g filter="url(#filter2_d_340_5)">
<path d="M79.4062 92.9062C79.2188 92.9062 78.9583 93.0312 78.625 93.2812C78.3125 93.5521 77.9792 93.8542 77.625 94.1875C77.2708 94.5417 76.9375 94.875 76.625 95.1875C76.3333 95.5208 76.125 95.7396 76 95.8438C75.8542 95.9688 75.625 96.1771 75.3125 96.4688C75.0208 96.7812 74.6979 97.1042 74.3438 97.4375C73.9896 97.7708 73.6458 98.0625 73.3125 98.3125C72.9792 98.5625 72.7188 98.6875 72.5312 98.6875H49.25C49.7917 98.2083 50.2917 97.7708 50.75 97.375C51.1458 97.0208 51.5208 96.6875 51.875 96.375C52.25 96.0833 52.5 95.8854 52.625 95.7812C52.7708 95.6562 52.9896 95.4375 53.2812 95.125C53.5938 94.8125 53.9167 94.4896 54.25 94.1562C54.6042 93.8229 54.9479 93.5312 55.2812 93.2812C55.6146 93.0312 55.8854 92.9062 56.0938 92.9062H79.4062ZM119.594 92.9062C119.406 92.9062 119.146 93.0312 118.812 93.2812C118.5 93.5521 118.167 93.8542 117.812 94.1875C117.458 94.5417 117.125 94.875 116.812 95.1875C116.521 95.5208 116.312 95.7396 116.188 95.8438C116.042 95.9688 115.812 96.1771 115.5 96.4688C115.208 96.7812 114.885 97.1042 114.531 97.4375C114.177 97.7708 113.833 98.0625 113.5 98.3125C113.167 98.5625 112.906 98.6875 112.719 98.6875H89.4375C89.9792 98.2083 90.4792 97.7708 90.9375 97.375C91.3333 97.0208 91.7083 96.6875 92.0625 96.375C92.4375 96.0833 92.6875 95.8854 92.8125 95.7812C92.9583 95.6562 93.1771 95.4375 93.4688 95.125C93.7812 94.8125 94.1042 94.4896 94.4375 94.1562C94.7917 93.8229 95.1354 93.5312 95.4688 93.2812C95.8021 93.0312 96.0729 92.9062 96.2812 92.9062H119.594ZM159.781 92.9062C159.594 92.9062 159.333 93.0312 159 93.2812C158.688 93.5521 158.354 93.8542 158 94.1875C157.646 94.5417 157.312 94.875 157 95.1875C156.708 95.5208 156.5 95.7396 156.375 95.8438C156.229 95.9688 156 96.1771 155.688 96.4688C155.396 96.7812 155.073 97.1042 154.719 97.4375C154.365 97.7708 154.021 98.0625 153.688 98.3125C153.354 98.5625 153.094 98.6875 152.906 98.6875H129.625C130.167 98.2083 130.667 97.7708 131.125 97.375C131.521 97.0208 131.896 96.6875 132.25 96.375C132.625 96.0833 132.875 95.8854 133 95.7812C133.146 95.6562 133.365 95.4375 133.656 95.125C133.969 94.8125 134.292 94.4896 134.625 94.1562C134.979 93.8229 135.323 93.5312 135.656 93.2812C135.99 93.0312 136.26 92.9062 136.469 92.9062H159.781ZM199.969 92.9062C199.781 92.9062 199.521 93.0312 199.188 93.2812C198.875 93.5521 198.542 93.8542 198.188 94.1875C197.833 94.5417 197.5 94.875 197.188 95.1875C196.896 95.5208 196.688 95.7396 196.562 95.8438C196.417 95.9688 196.188 96.1771 195.875 96.4688C195.583 96.7812 195.26 97.1042 194.906 97.4375C194.552 97.7708 194.208 98.0625 193.875 98.3125C193.542 98.5625 193.281 98.6875 193.094 98.6875H169.812C170.354 98.2083 170.854 97.7708 171.312 97.375C171.708 97.0208 172.083 96.6875 172.438 96.375C172.812 96.0833 173.062 95.8854 173.188 95.7812C173.333 95.6562 173.552 95.4375 173.844 95.125C174.156 94.8125 174.479 94.4896 174.812 94.1562C175.167 93.8229 175.51 93.5312 175.844 93.2812C176.177 93.0312 176.448 92.9062 176.656 92.9062H199.969ZM240.156 92.9062C239.969 92.9062 239.708 93.0312 239.375 93.2812C239.062 93.5521 238.729 93.8542 238.375 94.1875C238.021 94.5417 237.688 94.875 237.375 95.1875C237.083 95.5208 236.875 95.7396 236.75 95.8438C236.604 95.9688 236.375 96.1771 236.062 96.4688C235.771 96.7812 235.448 97.1042 235.094 97.4375C234.74 97.7708 234.396 98.0625 234.062 98.3125C233.729 98.5625 233.469 98.6875 233.281 98.6875H210C210.542 98.2083 211.042 97.7708 211.5 97.375C211.896 97.0208 212.271 96.6875 212.625 96.375C213 96.0833 213.25 95.8854 213.375 95.7812C213.521 95.6562 213.74 95.4375 214.031 95.125C214.344 94.8125 214.667 94.4896 215 94.1562C215.354 93.8229 215.698 93.5312 216.031 93.2812C216.365 93.0312 216.635 92.9062 216.844 92.9062H240.156ZM280.344 92.9062C280.156 92.9062 279.896 93.0312 279.562 93.2812C279.25 93.5521 278.917 93.8542 278.562 94.1875C278.208 94.5417 277.875 94.875 277.562 95.1875C277.271 95.5208 277.062 95.7396 276.938 95.8438C276.792 95.9688 276.562 96.1771 276.25 96.4688C275.958 96.7812 275.635 97.1042 275.281 97.4375C274.927 97.7708 274.583 98.0625 274.25 98.3125C273.917 98.5625 273.656 98.6875 273.469 98.6875H250.188C250.729 98.2083 251.229 97.7708 251.688 97.375C252.083 97.0208 252.458 96.6875 252.812 96.375C253.188 96.0833 253.438 95.8854 253.562 95.7812C253.708 95.6562 253.927 95.4375 254.219 95.125C254.531 94.8125 254.854 94.4896 255.188 94.1562C255.542 93.8229 255.885 93.5312 256.219 93.2812C256.552 93.0312 256.823 92.9062 257.031 92.9062H280.344ZM320.531 92.9062C320.344 92.9062 320.083 93.0312 319.75 93.2812C319.438 93.5521 319.104 93.8542 318.75 94.1875C318.396 94.5417 318.062 94.875 317.75 95.1875C317.458 95.5208 317.25 95.7396 317.125 95.8438C316.979 95.9688 316.75 96.1771 316.438 96.4688C316.146 96.7812 315.823 97.1042 315.469 97.4375C315.115 97.7708 314.771 98.0625 314.438 98.3125C314.104 98.5625 313.844 98.6875 313.656 98.6875H290.375C290.917 98.2083 291.417 97.7708 291.875 97.375C292.271 97.0208 292.646 96.6875 293 96.375C293.375 96.0833 293.625 95.8854 293.75 95.7812C293.896 95.6562 294.115 95.4375 294.406 95.125C294.719 94.8125 295.042 94.4896 295.375 94.1562C295.729 93.8229 296.073 93.5312 296.406 93.2812C296.74 93.0312 297.01 92.9062 297.219 92.9062H320.531ZM360.719 92.9062C360.531 92.9062 360.271 93.0312 359.938 93.2812C359.625 93.5521 359.292 93.8542 358.938 94.1875C358.583 94.5417 358.25 94.875 357.938 95.1875C357.646 95.5208 357.438 95.7396 357.312 95.8438C357.167 95.9688 356.938 96.1771 356.625 96.4688C356.333 96.7812 356.01 97.1042 355.656 97.4375C355.302 97.7708 354.958 98.0625 354.625 98.3125C354.292 98.5625 354.031 98.6875 353.844 98.6875H330.562C331.104 98.2083 331.604 97.7708 332.062 97.375C332.458 97.0208 332.833 96.6875 333.188 96.375C333.562 96.0833 333.812 95.8854 333.938 95.7812C334.083 95.6562 334.302 95.4375 334.594 95.125C334.906 94.8125 335.229 94.4896 335.562 94.1562C335.917 93.8229 336.26 93.5312 336.594 93.2812C336.927 93.0312 337.198 92.9062 337.406 92.9062H360.719ZM400.906 92.9062C400.719 92.9062 400.458 93.0312 400.125 93.2812C399.812 93.5521 399.479 93.8542 399.125 94.1875C398.771 94.5417 398.438 94.875 398.125 95.1875C397.833 95.5208 397.625 95.7396 397.5 95.8438C397.354 95.9688 397.125 96.1771 396.812 96.4688C396.521 96.7812 396.198 97.1042 395.844 97.4375C395.49 97.7708 395.146 98.0625 394.812 98.3125C394.479 98.5625 394.219 98.6875 394.031 98.6875H370.75C371.292 98.2083 371.792 97.7708 372.25 97.375C372.646 97.0208 373.021 96.6875 373.375 96.375C373.75 96.0833 374 95.8854 374.125 95.7812C374.271 95.6562 374.49 95.4375 374.781 95.125C375.094 94.8125 375.417 94.4896 375.75 94.1562C376.104 93.8229 376.448 93.5312 376.781 93.2812C377.115 93.0312 377.385 92.9062 377.594 92.9062H400.906Z" fill="black"/>
</g>
<defs>
<filter id="filter0_d_340_5" x="93.625" y="15.5938" width="410.406" height="92.1562" filterUnits="userSpaceOnUse" color-interpolation-filters="sRGB">
<feFlood flood-opacity="0" result="BackgroundImageFix"/>
<feColorMatrix in="SourceAlpha" type="matrix" values="0 0 0 0 0 0 0 0 0 0 0 0 0 0 0 0 0 0 127 0" result="hardAlpha"/>
<feOffset dy="4"/>
<feGaussianBlur stdDeviation="2"/>
<feComposite in2="hardAlpha" operator="out"/>
<feColorMatrix type="matrix" values="0 0 0 0 1 0 0 0 0 1 0 0 0 0 1 0 0 0 0.25 0"/>
<feBlend mode="normal" in2="BackgroundImageFix" result="effect1_dropShadow_340_5"/>
<feBlend mode="normal" in="SourceGraphic" in2="effect1_dropShadow_340_5" result="shape"/>
</filter>
<filter id="filter1_d_340_5" x="0.0625" y="97.5938" width="173.656" height="57.0312" filterUnits="userSpaceOnUse" color-interpolation-filters="sRGB">
<feFlood flood-opacity="0" result="BackgroundImageFix"/>
<feColorMatrix in="SourceAlpha" type="matrix" values="0 0 0 0 0 0 0 0 0 0 0 0 0 0 0 0 0 0 127 0" result="hardAlpha"/>
<feOffset dy="4"/>
<feGaussianBlur stdDeviation="2"/>
<feComposite in2="hardAlpha" operator="out"/>
<feColorMatrix type="matrix" values="0 0 0 0 1 0 0 0 0 1 0 0 0 0 1 0 0 0 0.25 0"/>
<feBlend mode="normal" in2="BackgroundImageFix" result="effect1_dropShadow_340_5"/>
<feBlend mode="normal" in="SourceGraphic" in2="effect1_dropShadow_340_5" result="shape"/>
</filter>
<filter id="filter2_d_340_5" x="45.25" y="92.9062" width="359.656" height="13.7812" filterUnits="userSpaceOnUse" color-interpolation-filters="sRGB">
<feFlood flood-opacity="0" result="BackgroundImageFix"/>
<feColorMatrix in="SourceAlpha" type="matrix" values="0 0 0 0 0 0 0 0 0 0 0 0 0 0 0 0 0 0 127 0" result="hardAlpha"/>
<feOffset dy="4"/>
<feGaussianBlur stdDeviation="2"/>
<feComposite in2="hardAlpha" operator="out"/>
<feColorMatrix type="matrix" values="0 0 0 0 1 0 0 0 0 1 0 0 0 0 1 0 0 0 0.25 0"/>
<feBlend mode="normal" in2="BackgroundImageFix" result="effect1_dropShadow_340_5"/>
<feBlend mode="normal" in="SourceGraphic" in2="effect1_dropShadow_340_5" result="shape"/>
</filter>
</defs>
</svg>
