<svg width="4223" height="2202" viewBox="0 0 4223 2202" fill="none" xmlns="http://www.w3.org/2000/svg">
<g filter="url(#filter0_d_340_5)">
<path d="M1503 1137.5C1477.67 1158.83 1455.17 1175.5 1435.5 1187.5C1416.17 1199.5 1399.5 1208.5 1385.5 1214.5C1369.5 1221.5 1355.5 1225.83 1343.5 1227.5C1326.83 1231.17 1308.33 1230.5 1288 1225.5C1268 1220.83 1246.83 1213 1224.5 1202C1202.5 1191 1180 1177.5 1157 1161.5C1134 1145.5 1111.33 1128.5 1089 1110.5C1066.67 1092.17 1045 1073.33 1024 1054C1003.33 1034.67 984.167 1016.17 966.5 998.5C949.167 980.833 933.667 964.667 920 950C906.667 935 896.167 922.667 888.5 913C881.833 904.667 876.5 897.833 872.5 892.5C868.833 886.833 867 881.333 867 876C867 871 869.333 865.333 874 859C878.667 852.333 886.667 843.667 898 833C904 827.333 911.833 819.833 921.5 810.5C931.167 800.833 941.833 790 953.5 778C965.5 766 978 753.167 991 739.5C1004.33 725.5 1017.33 711.333 1030 697C1043 682.667 1055.33 668.333 1067 654C1079 639.667 1089.33 626.167 1098 613.5C1107 600.5 1114.17 588.833 1119.5 578.5C1124.83 567.833 1127.5 558.833 1127.5 551.5C1127.5 541.833 1117.17 537 1096.5 537C1088.5 537 1080.83 536.833 1073.5 536.5C1067.17 536.5 1060.67 536.5 1054 536.5C1047.67 536.167 1042.67 536.333 1039 537C1056.33 527 1072.5 517.667 1087.5 509C1102.83 500 1117.67 492.333 1132 486C1146.67 479.333 1161.33 474.167 1176 470.5C1190.67 466.5 1206.17 464.5 1222.5 464.5C1229.83 464.5 1237.17 464.833 1244.5 465.5C1252.17 465.833 1260.17 466.833 1268.5 468.5C1253.17 495.5 1237.5 520 1221.5 542C1205.83 563.667 1190 583.667 1174 602C1158.33 620.333 1142.67 637.167 1127 652.5C1111.67 667.833 1096.5 682.5 1081.5 696.5C1066.5 710.167 1052 723.5 1038 736.5C1024 749.5 1010.67 763 998 777C992 783 989.333 790.167 990 798.5C991 806.833 997.167 817.333 1008.5 830C1026.17 849.667 1045.67 871.167 1067 894.5C1088.67 917.5 1111.67 940.667 1136 964C1160.67 987.333 1186.33 1010 1213 1032C1240 1054 1267.5 1073.5 1295.5 1090.5C1323.5 1107.5 1351.83 1121.17 1380.5 1131.5C1409.5 1141.5 1438.33 1146.5 1467 1146.5C1482 1146.5 1494 1143.5 1503 1137.5ZM978 1131C958.333 1144.33 939 1156.67 920 1168C901 1179.33 882.667 1189.33 865 1198C847.667 1206.33 831.167 1213.17 815.5 1218.5C800.167 1223.83 786 1227.17 773 1228.5C760 1229.5 748.5 1229.67 738.5 1229C728.5 1228.67 720.167 1226.33 713.5 1222C707.167 1218 702.333 1211.5 699 1202.5C695.667 1193.17 694 1180.33 694 1164C694 1155.67 694 1141.17 694 1120.5C694.333 1099.83 694.5 1075.33 694.5 1047C694.833 1018.33 695.167 987.167 695.5 953.5C695.833 919.5 696.167 885.167 696.5 850.5C696.833 815.833 697.167 782 697.5 749C697.833 715.667 698.167 685.5 698.5 658.5C698.833 631.5 699.167 608.833 699.5 590.5C699.833 571.833 700.167 559.833 700.5 554.5C700.833 548.5 699.5 543.5 696.5 539.5C693.833 535.5 690 532.333 685 530C680.333 527.333 674.667 525.5 668 524.5C661.333 523.5 654.333 523 647 523C635.333 523 622.667 524.167 609 526.5C595.667 528.5 583 531 571 534C587.667 523.333 604.167 513.333 620.5 504C637.167 494.333 653.833 486 670.5 479C687.167 472 704.167 466.5 721.5 462.5C738.833 458.5 756.667 456.5 775 456.5C782.333 456.5 789.333 457 796 458C802.667 458.667 808.5 460 813.5 462C818.833 463.667 823 466.167 826 469.5C829 472.5 830.5 476.333 830.5 481C830.5 493.667 830.333 525 830 575C830 596.333 829.833 622.833 829.5 654.5C829.5 686.167 829.333 724.5 829 769.5C829 814.167 828.833 866.167 828.5 925.5C828.5 984.5 828.5 1052.33 828.5 1129C845.833 1132 861.667 1134.17 876 1135.5C890.667 1136.83 903.833 1137.5 915.5 1137.5C925.833 1137.5 934.833 1137.17 942.5 1136.5C950.167 1135.83 956.667 1135.17 962 1134.5C968 1133.5 973.333 1132.33 978 1131ZM1548.75 1182.25L1489 1225.25C1490.5 1193.08 1491.67 1165.67 1492.5 1143C1493.33 1120.33 1493.92 1101.67 1494.25 1087C1494.75 1069.83 1495 1055.67 1495 1044.5C1495.83 1024.33 1493.08 1008.58 1486.75 997.25C1480.42 985.75 1470.75 980 1457.75 980C1453.58 980 1449.17 980.667 1444.5 982C1440 983.167 1435.17 984.917 1430 987.25C1436.5 982.583 1443.33 977.833 1450.5 973C1457.67 968 1465 963.5 1472.5 959.5C1480 955.5 1487.5 952.25 1495 949.75C1502.67 947.083 1510.17 945.75 1517.5 945.75C1524.5 945.75 1530.83 947.167 1536.5 950C1542.33 952.833 1546.75 957.583 1549.75 964.25C1552.42 969.917 1554.25 976.25 1555.25 983.25C1556.42 990.25 1557.17 997.917 1557.5 1006.25C1566 997.25 1575.5 988.833 1586 981C1596.67 973.167 1607.75 966.5 1619.25 961C1630.75 955.5 1642.33 951.417 1654 948.75C1665.67 946.083 1676.67 945.417 1687 946.75C1694.5 947.75 1702.25 949.833 1710.25 953C1718.42 956.167 1725.83 961 1732.5 967.5C1739.33 974 1744.83 982.583 1749 993.25C1753.17 1003.75 1755.08 1016.92 1754.75 1032.75C1754.25 1051.42 1753.42 1068.58 1752.25 1084.25C1751.08 1099.75 1750.5 1113.5 1750.5 1125.5C1750.5 1132.67 1751.08 1139.5 1752.25 1146C1753.42 1152.33 1755.42 1157.92 1758.25 1162.75C1761.25 1167.42 1765.25 1171.17 1770.25 1174C1775.25 1176.83 1781.5 1178.25 1789 1178.25C1795.67 1178.25 1802.67 1177 1810 1174.5C1817.5 1171.83 1825 1167.83 1832.5 1162.5C1820.33 1173.33 1809.17 1182.42 1799 1189.75C1789 1197.08 1779.67 1203 1771 1207.5C1762.33 1212 1754.25 1215.17 1746.75 1217C1739.25 1219 1732 1219.92 1725 1219.75C1718 1219.58 1712 1218.17 1707 1215.5C1702 1213 1698 1209.08 1695 1203.75C1692 1198.25 1689.92 1191.25 1688.75 1182.75C1687.58 1174.08 1687.17 1163.5 1687.5 1151C1688 1140 1688.67 1127.92 1689.5 1114.75C1690.33 1101.42 1690.75 1088.25 1690.75 1075.25C1690.75 1060.42 1689.75 1047.67 1687.75 1037C1685.75 1026.33 1682.08 1017.58 1676.75 1010.75C1671.58 1003.75 1664.33 998.583 1655 995.25C1645.83 991.917 1634 990.25 1619.5 990.25C1609 990.25 1600.08 992.333 1592.75 996.5C1585.42 1000.5 1579.33 1006 1574.5 1013C1569.67 1020 1565.83 1028.17 1563 1037.5C1560.33 1046.67 1558.25 1056.5 1556.75 1067C1555.42 1077.33 1554.5 1088 1554 1099C1553.5 1109.83 1553.08 1120.33 1552.75 1130.5C1552.58 1140.67 1552.25 1150.25 1551.75 1159.25C1551.25 1168.08 1550.25 1175.75 1548.75 1182.25ZM2151.75 1064.5C2151.75 1078.33 2149.83 1090.92 2146 1102.25C2142.17 1113.58 2137.58 1123.5 2132.25 1132C2126.92 1140.5 2121.5 1147.58 2116 1153.25C2110.5 1158.92 2106.08 1163 2102.75 1165.5C2093.08 1172.5 2083.17 1179.33 2073 1186C2062.83 1192.67 2052.33 1198.67 2041.5 1204C2030.83 1209.17 2019.83 1213.33 2008.5 1216.5C1997.17 1219.67 1985.5 1221.25 1973.5 1221.25C1955.67 1221.25 1938.75 1219 1922.75 1214.5C1906.92 1210 1893 1203.25 1881 1194.25C1869.17 1185.25 1859.75 1173.92 1852.75 1160.25C1845.92 1146.58 1842.5 1130.58 1842.5 1112.25C1842.5 1096.08 1845.25 1080.92 1850.75 1066.75C1856.42 1052.42 1863.92 1039.25 1873.25 1027.25C1882.75 1015.25 1893.83 1004.5 1906.5 995C1919.17 985.333 1932.58 977.167 1946.75 970.5C1960.92 963.833 1975.5 958.75 1990.5 955.25C2005.5 951.75 2020 950 2034 950C2051.33 950 2067.17 952.917 2081.5 958.75C2096 964.417 2108.42 972.417 2118.75 982.75C2129.25 992.917 2137.33 1005 2143 1019C2148.83 1033 2151.75 1048.17 2151.75 1064.5ZM1979.25 979C1970.75 979 1963 980.583 1956 983.75C1949 986.75 1942.75 990.917 1937.25 996.25C1931.92 1001.42 1927.25 1007.5 1923.25 1014.5C1919.42 1021.33 1916.17 1028.58 1913.5 1036.25C1911 1043.75 1909.08 1051.42 1907.75 1059.25C1906.58 1066.92 1906 1074.17 1906 1081C1906 1096.5 1908.83 1111 1914.5 1124.5C1920.17 1137.83 1927.92 1149.5 1937.75 1159.5C1947.75 1169.5 1959.33 1177.33 1972.5 1183C1985.83 1188.67 2000 1191.5 2015 1191.5C2024.33 1191.5 2033.33 1189.75 2042 1186.25C2050.83 1182.58 2058.58 1176.92 2065.25 1169.25C2072.08 1161.42 2077.5 1151.42 2081.5 1139.25C2085.67 1126.92 2087.75 1112.08 2087.75 1094.75C2087.75 1079.58 2084.92 1065 2079.25 1051C2073.58 1037 2065.83 1024.67 2056 1014C2046.17 1003.33 2034.67 994.833 2021.5 988.5C2008.33 982.167 1994.25 979 1979.25 979ZM2627.5 936.5C2629.83 943.5 2631.75 950.083 2633.25 956.25C2634.92 962.417 2635.75 968.833 2635.75 975.5C2635.75 980.333 2635.17 985.5 2634 991C2632.83 996.333 2630.92 1002.25 2628.25 1008.75C2625.58 1015.08 2622 1022.08 2617.5 1029.75C2613.17 1037.42 2607.67 1046 2601 1055.5C2589.83 1071.33 2579.83 1085.58 2571 1098.25C2562.17 1110.75 2554.5 1122 2548 1132C2541.5 1142 2536.17 1150.92 2532 1158.75C2528 1166.42 2525.25 1173.25 2523.75 1179.25C2518.08 1182.42 2512.25 1186.17 2506.25 1190.5C2501.08 1194.33 2495.33 1199.08 2489 1204.75C2482.83 1210.42 2476.67 1217.08 2470.5 1224.75C2472.17 1217.08 2472.17 1208.67 2470.5 1199.5C2468.83 1190.17 2466.08 1180.5 2462.25 1170.5C2458.58 1160.5 2454.17 1150.25 2449 1139.75C2443.83 1129.08 2438.5 1118.58 2433 1108.25C2427.67 1097.92 2422.5 1087.83 2417.5 1078C2412.67 1068 2408.67 1058.58 2405.5 1049.75C2398.83 1059.75 2391.67 1070.25 2384 1081.25C2376.33 1092.08 2369.17 1103 2362.5 1114C2356 1125 2350.5 1135.75 2346 1146.25C2341.5 1156.58 2339.08 1166.25 2338.75 1175.25C2334.08 1177.75 2329 1181.17 2323.5 1185.5C2318.67 1189.17 2313.08 1194 2306.75 1200C2300.42 1205.83 2293.67 1213.08 2286.5 1221.75C2285.17 1205.58 2282.92 1189.58 2279.75 1173.75C2276.75 1157.75 2273.67 1143.25 2270.5 1130.25C2266.67 1115.25 2262.67 1100.83 2258.5 1087C2254 1073 2249.17 1060.08 2244 1048.25C2239 1036.25 2233.58 1025.83 2227.75 1017C2222.08 1008.17 2215.92 1001.25 2209.25 996.25C2202.75 991.25 2195.75 988.75 2188.25 988.75C2184.08 988.75 2179.92 989.583 2175.75 991.25C2171.75 992.75 2167.42 995 2162.75 998C2168.42 992.5 2174.67 986.667 2181.5 980.5C2188.5 974.167 2195.83 968.333 2203.5 963C2211.17 957.5 2219 953 2227 949.5C2235.17 946 2243.25 944.25 2251.25 944.25C2256.58 944.25 2261.5 945.5 2266 948C2270.5 950.5 2274.33 954.417 2277.5 959.75C2280.67 965.25 2284.92 973.583 2290.25 984.75C2295.58 995.75 2301.08 1008.67 2306.75 1023.5C2312.42 1038.17 2317.67 1054.33 2322.5 1072C2327.5 1089.67 2331.25 1107.83 2333.75 1126.5C2341.75 1116 2349.25 1105 2356.25 1093.5C2363.42 1082 2369.58 1070.25 2374.75 1058.25C2380.08 1046.08 2384.25 1033.83 2387.25 1021.5C2390.42 1009 2392 996.583 2392 984.25L2449 938.75C2448.17 943.25 2448 948.083 2448.5 953.25C2449.17 958.25 2450 962.917 2451 967.25C2452.17 972.417 2453.67 977.417 2455.5 982.25C2456.83 986.083 2459.08 991.417 2462.25 998.25C2465.42 1005.08 2469.08 1012.92 2473.25 1021.75C2477.42 1030.42 2481.92 1039.75 2486.75 1049.75C2491.58 1059.75 2496.33 1069.75 2501 1079.75C2505.67 1089.75 2510 1099.42 2514 1108.75C2518 1118.08 2521.42 1126.42 2524.25 1133.75C2530.58 1124.25 2536.92 1114.5 2543.25 1104.5C2549.75 1094.33 2555.5 1084.17 2560.5 1074C2565.67 1063.67 2569.83 1053.33 2573 1043C2576.33 1032.67 2578 1022.42 2578 1012.25C2578 1007.42 2577.58 1002.5 2576.75 997.5C2575.92 992.5 2574.42 987.417 2572.25 982.25C2581.58 976.083 2589.67 970.25 2596.5 964.75C2603.33 959.083 2609.08 954.167 2613.75 950C2619.25 945.167 2623.83 940.667 2627.5 936.5ZM2862.5 1164C2845.83 1175.5 2831.83 1185 2820.5 1192.5C2809.17 1199.83 2799.25 1205.67 2790.75 1210C2782.42 1214.5 2774.83 1217.58 2768 1219.25C2761.33 1220.92 2754.25 1221.75 2746.75 1221.75C2740.25 1221.75 2733.92 1220.17 2727.75 1217C2721.75 1214 2716.33 1208.42 2711.5 1200.25C2706.83 1191.92 2703.08 1180.58 2700.25 1166.25C2697.42 1151.75 2696 1133.08 2696 1110.25C2696 1087.75 2696.25 1064.17 2696.75 1039.5C2697.25 1014.83 2697.75 990.083 2698.25 965.25C2698.92 940.417 2699.5 916.083 2700 892.25C2700.5 868.417 2700.75 846.167 2700.75 825.5C2700.75 805.167 2697.67 789.333 2691.5 778C2685.33 766.667 2675.92 761 2663.25 761C2659.42 761 2655.17 761.583 2650.5 762.75C2645.83 763.75 2640.92 765.583 2635.75 768.25C2642.25 763.583 2649.08 758.833 2656.25 754C2663.42 749 2670.67 744.5 2678 740.5C2685.5 736.5 2693 733.25 2700.5 730.75C2708.17 728.083 2715.75 726.75 2723.25 726.75C2732.75 726.75 2740.17 729.167 2745.5 734C2751 738.667 2755 744.5 2757.5 751.5C2760.17 758.5 2761.75 766.167 2762.25 774.5C2762.92 782.667 2763.25 790.25 2763.25 797.25C2763.08 807.917 2762.83 820.75 2762.5 835.75C2762.33 850.75 2762.08 866.917 2761.75 884.25C2761.42 901.417 2761.08 919.25 2760.75 937.75C2760.42 956.25 2760.08 974.417 2759.75 992.25C2759.42 1009.92 2759.08 1026.75 2758.75 1042.75C2758.58 1058.75 2758.33 1072.83 2758 1085C2757.67 1101.33 2758.83 1115.5 2761.5 1127.5C2764.17 1139.33 2768 1149.08 2773 1156.75C2778 1164.42 2784 1170.08 2791 1173.75C2798 1177.42 2805.75 1179.25 2814.25 1179.25C2829.58 1179.25 2845.67 1174.17 2862.5 1164ZM3183.25 971.5C3164.08 980.833 3146.25 989.167 3129.75 996.5C3113.42 1003.67 3099 1009.75 3086.5 1014.75C3072 1020.58 3058.67 1025.75 3046.5 1030.25C3039 1033.42 3030.67 1036.67 3021.5 1040C3012.5 1043.17 3003.08 1046.33 2993.25 1049.5C2983.42 1052.5 2973.33 1055.58 2963 1058.75C2952.83 1061.75 2942.75 1064.75 2932.75 1067.75V1072.75C2932.75 1089.92 2935.42 1105.33 2940.75 1119C2946.25 1132.67 2953.83 1144.33 2963.5 1154C2973.17 1163.5 2984.75 1170.83 2998.25 1176C3011.75 1181 3026.67 1183.5 3043 1183.5C3051.5 1183.5 3059.92 1182.83 3068.25 1181.5C3076.75 1180.17 3084.75 1178.42 3092.25 1176.25C3099.92 1173.92 3107.08 1171.17 3113.75 1168C3120.42 1164.83 3126.33 1161.42 3131.5 1157.75C3118.83 1169.08 3105.75 1178.58 3092.25 1186.25C3078.92 1193.92 3065.5 1200.17 3052 1205C3038.67 1209.67 3025.42 1213.08 3012.25 1215.25C2999.25 1217.42 2986.75 1218.58 2974.75 1218.75C2962.58 1219.08 2950.58 1217.17 2938.75 1213C2927.08 1209 2916.42 1202.83 2906.75 1194.5C2897.08 1186.17 2888.92 1175.83 2882.25 1163.5C2875.58 1151 2871.25 1136.5 2869.25 1120C2868.42 1114.17 2868 1108.58 2868 1103.25C2868.17 1097.75 2868.75 1092.33 2869.75 1087C2863.92 1089.17 2858.58 1091.17 2853.75 1093C2849.08 1094.83 2845.25 1096.67 2842.25 1098.5C2847.08 1095.17 2851.92 1092.08 2856.75 1089.25C2861.58 1086.25 2866.33 1083.5 2871 1081C2873.83 1068 2878.67 1055.58 2885.5 1043.75C2892.5 1031.92 2900.83 1020.92 2910.5 1010.75C2920.33 1000.58 2931.25 991.417 2943.25 983.25C2955.25 974.917 2967.67 967.833 2980.5 962C2993.5 956.167 3006.67 951.667 3020 948.5C3033.33 945.333 3046.25 943.75 3058.75 943.75C3067.08 943.75 3074.08 945 3079.75 947.5C3085.58 950 3089.5 954.417 3091.5 960.75C3092.5 967.417 3090.08 974.583 3084.25 982.25C3081.75 985.583 3078.33 989.167 3074 993C3069.83 996.667 3064.33 1000.58 3057.5 1004.75C3050.83 1008.92 3042.75 1013.25 3033.25 1017.75C3023.92 1022.25 3012.83 1026.75 3000 1031.25L3183.25 971.5ZM2985 1032.25C2992.17 1029.08 2998.58 1025.67 3004.25 1022C3010.08 1018.33 3014.58 1014.5 3017.75 1010.5C3021.08 1006.5 3022.83 1002.33 3023 998C3023.17 993.667 3021.42 989.083 3017.75 984.25C3015.25 980.583 3011.75 978.083 3007.25 976.75C3002.92 975.25 2998.42 974.5 2993.75 974.5C2989.42 974.5 2985.25 975 2981.25 976C2977.25 976.833 2973.75 978 2970.75 979.5C2968.75 980.667 2966 983.25 2962.5 987.25C2959 991.083 2955.42 996.167 2951.75 1002.5C2948.08 1008.67 2944.58 1015.92 2941.25 1024.25C2938.08 1032.42 2935.75 1041.42 2934.25 1051.25C2944.75 1047.42 2954.25 1044 2962.75 1041C2971.25 1038 2978.67 1035.08 2985 1032.25ZM3530.75 1175.25C3508.25 1190.58 3489.08 1201.58 3473.25 1208.25C3457.42 1214.92 3444 1218.25 3433 1218.25C3428.5 1218.25 3423.83 1217.5 3419 1216C3414.33 1214.67 3409.83 1212.33 3405.5 1209C3401.17 1205.5 3397.17 1200.92 3393.5 1195.25C3390 1189.42 3387.25 1182.08 3385.25 1173.25C3377.08 1179.25 3368 1185.17 3358 1191C3348.17 1196.83 3338 1202.08 3327.5 1206.75C3317 1211.42 3306.42 1215.17 3295.75 1218C3285.25 1220.83 3275.17 1222.25 3265.5 1222.25C3249.17 1222.25 3234.5 1218.92 3221.5 1212.25C3208.5 1205.75 3197.42 1197.08 3188.25 1186.25C3179.25 1175.42 3172.25 1163.08 3167.25 1149.25C3162.42 1135.42 3160 1121.17 3160 1106.5C3160 1090.17 3162.5 1075.58 3167.5 1062.75C3172.67 1049.75 3179.58 1038.25 3188.25 1028.25C3197.08 1018.08 3207.25 1009.17 3218.75 1001.5C3230.25 993.667 3242.5 986.833 3255.5 981C3268.5 975.167 3281.83 970.083 3295.5 965.75C3309.17 961.25 3322.42 957.167 3335.25 953.5C3336.42 953.333 3337.83 953.167 3339.5 953C3340.83 952.833 3342.42 952.75 3344.25 952.75C3346.25 952.583 3348.5 952.5 3351 952.5C3355.67 952.5 3360.92 952.833 3366.75 953.5C3372.75 954 3379.08 955 3385.75 956.5L3391 798.75C3390.67 789.583 3389 781.75 3386 775.25C3384.67 772.583 3383 770.083 3381 767.75C3379 765.25 3376.5 763.333 3373.5 762C3370.67 760.667 3367.17 759.917 3363 759.75C3359 759.583 3354.33 760.333 3349 762C3355.5 759 3362.42 755.667 3369.75 752C3377.08 748.167 3384.33 744.667 3391.5 741.5C3398.83 738.167 3405.92 735.417 3412.75 733.25C3419.75 730.917 3426.17 729.75 3432 729.75C3438.33 729.75 3443.58 731.417 3447.75 734.75C3452.08 738.083 3454.5 743.25 3455 750.25C3455.5 754.917 3455.75 761.333 3455.75 769.5C3455.92 777.667 3456 787.417 3456 798.75C3456 812.25 3455.83 827.333 3455.5 844C3455.33 860.5 3455.08 877.75 3454.75 895.75C3454.42 913.75 3454 932.083 3453.5 950.75C3453 969.417 3452.58 987.667 3452.25 1005.5C3451.92 1023.33 3451.58 1040.33 3451.25 1056.5C3451.08 1072.5 3451 1086.83 3451 1099.5C3451 1109.5 3451.58 1119.33 3452.75 1129C3454.08 1138.67 3456.58 1147.33 3460.25 1155C3464.08 1162.67 3469.33 1168.92 3476 1173.75C3482.83 1178.42 3491.83 1180.75 3503 1180.75C3507.17 1180.75 3511.5 1180.33 3516 1179.5C3520.67 1178.67 3525.58 1177.25 3530.75 1175.25ZM3384.25 1011.25C3378.42 1006.25 3372.17 1002.08 3365.5 998.75C3358.83 995.417 3351.92 992.75 3344.75 990.75C3337.75 988.583 3330.67 987.083 3323.5 986.25C3316.5 985.25 3309.67 984.75 3303 984.75C3288.5 984.75 3276.08 986.917 3265.75 991.25C3255.58 995.583 3247.25 1001.75 3240.75 1009.75C3234.25 1017.75 3229.5 1027.33 3226.5 1038.5C3223.5 1049.67 3222 1062.08 3222 1075.75C3222 1090.42 3224.25 1104.33 3228.75 1117.5C3233.42 1130.5 3239.92 1142 3248.25 1152C3256.58 1161.83 3266.67 1169.67 3278.5 1175.5C3290.5 1181.17 3303.75 1184 3318.25 1184C3328.58 1184 3337.42 1182.75 3344.75 1180.25C3352.08 1177.58 3358.17 1174 3363 1169.5C3368 1164.83 3372 1159.25 3375 1152.75C3378 1146.25 3380.42 1139.08 3382.25 1131.25C3382.25 1124.75 3382.25 1117.17 3382.25 1108.5C3382.42 1099.67 3382.58 1090.17 3382.75 1080C3383.08 1069.67 3383.33 1058.75 3383.5 1047.25C3383.67 1035.58 3383.92 1023.58 3384.25 1011.25ZM3825 958.5C3824.5 979.833 3824.08 999 3823.75 1016C3823.42 1032.83 3823.08 1047.92 3822.75 1061.25C3822.58 1074.58 3822.42 1086.25 3822.25 1096.25C3822.08 1106.08 3822 1114.58 3822 1121.75C3821.83 1138.42 3821.83 1150.25 3822 1157.25C3821.67 1175.75 3821.42 1192 3821.25 1206C3821.08 1220 3820.17 1232.5 3818.5 1243.5C3817 1254.5 3814.33 1264.17 3810.5 1272.5C3806.83 1281 3801.25 1288.83 3793.75 1296C3780.75 1308.5 3767.17 1320.92 3753 1333.25C3739 1345.75 3724.42 1356.92 3709.25 1366.75C3694.25 1376.75 3678.58 1384.75 3662.25 1390.75C3645.92 1396.92 3629 1400 3611.5 1400C3601 1400 3589.92 1398.42 3578.25 1395.25C3566.58 1392.25 3555.75 1387.75 3545.75 1381.75C3535.92 1375.75 3527.83 1368.25 3521.5 1359.25C3515 1350.25 3511.75 1339.75 3511.75 1327.75C3511.75 1318.25 3514.58 1309 3520.25 1300C3525.75 1291.17 3534 1283 3545 1275.5C3551.33 1271 3558.5 1265.92 3566.5 1260.25C3573.5 1255.42 3581.83 1249.67 3591.5 1243C3601.33 1236.33 3612.42 1228.92 3624.75 1220.75C3612.08 1219.75 3601 1216.08 3591.5 1209.75C3582 1203.42 3574 1195.5 3567.5 1186C3561.17 1176.5 3556.42 1166.08 3553.25 1154.75C3550.08 1143.25 3548.5 1131.83 3548.5 1120.5C3548.5 1111.67 3549.17 1102.92 3550.5 1094.25C3551.83 1085.58 3553.5 1077.5 3555.5 1070C3557.67 1062.33 3560.08 1055.42 3562.75 1049.25C3565.58 1042.92 3568.5 1037.75 3571.5 1033.75C3577.33 1025.75 3584.5 1018.17 3593 1011C3601.67 1003.67 3611.08 997 3621.25 991C3631.42 984.833 3642.08 979.333 3653.25 974.5C3664.42 969.667 3675.5 965.583 3686.5 962.25C3697.5 958.75 3708.17 956.083 3718.5 954.25C3728.83 952.417 3738.25 951.5 3746.75 951.5C3756.08 951.5 3767.25 952 3780.25 953C3793.42 953.833 3808.33 955.667 3825 958.5ZM3757.5 993.5C3747.5 991.167 3736.83 989.5 3725.5 988.5C3714.17 987.333 3703.33 986.75 3693 986.75C3679 986.75 3666.75 988.167 3656.25 991C3645.92 993.833 3637.25 999 3630.25 1006.5C3623.42 1014 3618.25 1024.25 3614.75 1037.25C3611.25 1050.25 3609.5 1066.83 3609.5 1087C3609.5 1098 3611.08 1108.92 3614.25 1119.75C3617.42 1130.58 3622 1140.33 3628 1149C3634.17 1157.67 3641.67 1164.75 3650.5 1170.25C3659.5 1175.58 3669.75 1178.25 3681.25 1178.25C3692.42 1178.25 3702.17 1176.5 3710.5 1173C3719 1169.5 3726.25 1164.75 3732.25 1158.75C3738.25 1152.75 3743.17 1145.75 3747 1137.75C3751 1129.75 3754.17 1121.25 3756.5 1112.25C3756.5 1098.08 3756.58 1081.42 3756.75 1062.25C3756.92 1042.92 3757.17 1020 3757.5 993.5ZM3581.75 1268.25C3572.92 1276.92 3568.5 1286 3568.5 1295.5C3568.5 1302.83 3570.42 1309.33 3574.25 1315C3578.25 1320.67 3583.33 1325.67 3589.5 1330C3595.83 1334.33 3602.92 1337.92 3610.75 1340.75C3618.58 1343.75 3626.42 1346.17 3634.25 1348C3642.25 1349.83 3649.83 1351.17 3657 1352C3664.17 1352.83 3670.17 1353.25 3675 1353.25C3686 1353.25 3696.17 1352.25 3705.5 1350.25C3714.83 1348.25 3722.08 1345.33 3727.25 1341.5C3732.92 1337.17 3737.58 1329.17 3741.25 1317.5C3744.92 1306 3747.83 1291.83 3750 1275C3752.17 1258.33 3753.67 1239.58 3754.5 1218.75C3755.5 1197.92 3756.17 1176.08 3756.5 1153.25C3748 1161.58 3739.08 1169.58 3729.75 1177.25C3720.58 1184.92 3711.08 1191.83 3701.25 1198C3691.42 1204 3681.42 1209 3671.25 1213C3661.08 1217 3650.92 1219.58 3640.75 1220.75C3630.75 1228.25 3622 1234.83 3614.5 1240.5C3607.17 1246.33 3601.08 1251.33 3596.25 1255.5C3590.58 1260.33 3585.75 1264.58 3581.75 1268.25ZM4218.75 971.5C4199.58 980.833 4181.75 989.167 4165.25 996.5C4148.92 1003.67 4134.5 1009.75 4122 1014.75C4107.5 1020.58 4094.17 1025.75 4082 1030.25C4074.5 1033.42 4066.17 1036.67 4057 1040C4048 1043.17 4038.58 1046.33 4028.75 1049.5C4018.92 1052.5 4008.83 1055.58 3998.5 1058.75C3988.33 1061.75 3978.25 1064.75 3968.25 1067.75V1072.75C3968.25 1089.92 3970.92 1105.33 3976.25 1119C3981.75 1132.67 3989.33 1144.33 3999 1154C4008.67 1163.5 4020.25 1170.83 4033.75 1176C4047.25 1181 4062.17 1183.5 4078.5 1183.5C4087 1183.5 4095.42 1182.83 4103.75 1181.5C4112.25 1180.17 4120.25 1178.42 4127.75 1176.25C4135.42 1173.92 4142.58 1171.17 4149.25 1168C4155.92 1164.83 4161.83 1161.42 4167 1157.75C4154.33 1169.08 4141.25 1178.58 4127.75 1186.25C4114.42 1193.92 4101 1200.17 4087.5 1205C4074.17 1209.67 4060.92 1213.08 4047.75 1215.25C4034.75 1217.42 4022.25 1218.58 4010.25 1218.75C3998.08 1219.08 3986.08 1217.17 3974.25 1213C3962.58 1209 3951.92 1202.83 3942.25 1194.5C3932.58 1186.17 3924.42 1175.83 3917.75 1163.5C3911.08 1151 3906.75 1136.5 3904.75 1120C3903.92 1114.17 3903.5 1108.58 3903.5 1103.25C3903.67 1097.75 3904.25 1092.33 3905.25 1087C3899.42 1089.17 3894.08 1091.17 3889.25 1093C3884.58 1094.83 3880.75 1096.67 3877.75 1098.5C3882.58 1095.17 3887.42 1092.08 3892.25 1089.25C3897.08 1086.25 3901.83 1083.5 3906.5 1081C3909.33 1068 3914.17 1055.58 3921 1043.75C3928 1031.92 3936.33 1020.92 3946 1010.75C3955.83 1000.58 3966.75 991.417 3978.75 983.25C3990.75 974.917 4003.17 967.833 4016 962C4029 956.167 4042.17 951.667 4055.5 948.5C4068.83 945.333 4081.75 943.75 4094.25 943.75C4102.58 943.75 4109.58 945 4115.25 947.5C4121.08 950 4125 954.417 4127 960.75C4128 967.417 4125.58 974.583 4119.75 982.25C4117.25 985.583 4113.83 989.167 4109.5 993C4105.33 996.667 4099.83 1000.58 4093 1004.75C4086.33 1008.92 4078.25 1013.25 4068.75 1017.75C4059.42 1022.25 4048.33 1026.75 4035.5 1031.25L4218.75 971.5ZM4020.5 1032.25C4027.67 1029.08 4034.08 1025.67 4039.75 1022C4045.58 1018.33 4050.08 1014.5 4053.25 1010.5C4056.58 1006.5 4058.33 1002.33 4058.5 998C4058.67 993.667 4056.92 989.083 4053.25 984.25C4050.75 980.583 4047.25 978.083 4042.75 976.75C4038.42 975.25 4033.92 974.5 4029.25 974.5C4024.92 974.5 4020.75 975 4016.75 976C4012.75 976.833 4009.25 978 4006.25 979.5C4004.25 980.667 4001.5 983.25 3998 987.25C3994.5 991.083 3990.92 996.167 3987.25 1002.5C3983.58 1008.67 3980.08 1015.92 3976.75 1024.25C3973.58 1032.42 3971.25 1041.42 3969.75 1051.25C3980.25 1047.42 3989.75 1044 3998.25 1041C4006.75 1038 4014.17 1035.08 4020.5 1032.25Z" fill="black"/>
</g>
<g filter="url(#filter1_d_340_5)">
<path d="M655.5 1470.5C651.833 1500.83 642.333 1529.5 627 1556.5C612 1583.5 593.167 1608.5 570.5 1631.5C547.833 1654.5 522.333 1675.33 494 1694C465.667 1712.33 436.333 1727.83 406 1740.5C376 1753.5 345.833 1763.5 315.5 1770.5C285.167 1777.5 256.833 1781 230.5 1781C217.5 1780.67 204.333 1779.83 191 1778.5C179.333 1777.17 166.333 1775.17 152 1772.5C137.667 1770.17 123.5 1766.5 109.5 1761.5L132 1092C118 1092 102.833 1091.5 86.5 1090.5C70.1667 1089.5 52.3333 1087.83 33 1085.5L161 1013C172.667 1015 184 1016.33 195 1017C206.333 1017.67 216.833 1018 226.5 1018C243.833 1018 260.667 1017 277 1015C293.333 1012.67 309.333 1010.17 325 1007.5C340.667 1004.5 356.167 1002 371.5 1000C386.833 997.667 402.333 996.5 418 996.5C443.667 996.5 467.167 1000.17 488.5 1007.5C510.167 1014.5 528.667 1025 544 1039C559.667 1052.67 571.5 1069.5 579.5 1089.5C587.833 1109.5 591.667 1132.5 591 1158.5C589.333 1175.17 583.5 1192.5 573.5 1210.5C569.167 1218.17 563.833 1226.33 557.5 1235C551.167 1243.67 543.333 1252.5 534 1261.5C524.667 1270.5 513.833 1279.5 501.5 1288.5C489.167 1297.5 475 1306.33 459 1315C465 1314.33 470.833 1313.83 476.5 1313.5C482.167 1313.17 487.5 1313 492.5 1313C514.167 1313 533 1315.33 549 1320C565.333 1324.33 579.333 1330.33 591 1338C603 1345.33 612.833 1353.67 620.5 1363C628.167 1372.33 634.333 1382 639 1392C650 1415.33 655.5 1441.5 655.5 1470.5ZM358.5 1704C385.833 1704 410 1700.17 431 1692.5C452 1684.83 469.667 1673.83 484 1659.5C498.333 1644.83 509.167 1627.17 516.5 1606.5C523.833 1585.5 527.5 1561.67 527.5 1535C527.5 1512.33 523.667 1491.5 516 1472.5C508.333 1453.17 497.5 1436.67 483.5 1423C469.833 1409 453.667 1398.17 435 1390.5C416.333 1382.5 396 1378.5 374 1378.5C365.667 1378.5 357.167 1379.33 348.5 1381C340.167 1382.67 331.833 1385.67 323.5 1390C351.833 1375 375 1359.67 393 1344C411 1328 425 1312.33 435 1297C445.333 1281.33 452.333 1266.17 456 1251.5C460 1236.83 462 1223.17 462 1210.5C462 1191.5 458.5 1173.83 451.5 1157.5C444.833 1140.83 435.667 1126.5 424 1114.5C412.333 1102.17 398.5 1092.67 382.5 1086C366.5 1079 349.333 1075.5 331 1075.5C318.333 1075.5 306.333 1076.17 295 1077.5C283.667 1078.5 272.333 1079.83 261 1081.5L238.5 1684.5C262.5 1691.83 284.333 1697 304 1700C323.667 1702.67 341.833 1704 358.5 1704ZM1077.75 1700.5C1070.75 1707.5 1063.17 1713.92 1055 1719.75C1047 1725.42 1038.92 1730.33 1030.75 1734.5C1022.58 1738.67 1014.67 1742 1007 1744.5C999.333 1747 992.333 1748.42 986 1748.75C982.5 1749.08 978 1749 972.5 1748.5C967 1748.17 961.667 1746.75 956.5 1744.25C951.5 1741.75 947.167 1737.83 943.5 1732.5C939.833 1727.17 938 1719.58 938 1709.75V1680C928.833 1689 919.167 1697.67 909 1706C898.833 1714.17 888.333 1721.5 877.5 1728C866.833 1734.33 856 1739.33 845 1743C834 1746.83 823.167 1748.75 812.5 1748.75C798.833 1748.75 786.833 1745.67 776.5 1739.5C766.167 1733.5 757.5 1725.67 750.5 1716C743.5 1706.33 738.25 1695.5 734.75 1683.5C731.25 1671.5 729.5 1659.58 729.5 1647.75C729.5 1638.92 730.167 1630.25 731.5 1621.75C732.833 1613.08 734.5 1604.92 736.5 1597.25C738.667 1589.58 741.083 1582.67 743.75 1576.5C746.583 1570.33 749.5 1565.25 752.5 1561.25C758 1553.75 765 1546.5 773.5 1539.5C782 1532.5 791.25 1525.92 801.25 1519.75C811.417 1513.58 822.167 1508 833.5 1503C844.833 1498 856.083 1493.67 867.25 1490C878.583 1486.33 889.583 1483.5 900.25 1481.5C910.917 1479.5 920.75 1478.5 929.75 1478.5C939.083 1478.5 950.083 1479 962.75 1480C975.417 1480.83 989.833 1482.67 1006 1485.5C1005.33 1504.67 1004.75 1521.58 1004.25 1536.25C1003.75 1550.92 1003.33 1564.08 1003 1575.75C1002.67 1587.25 1002.42 1597.75 1002.25 1607.25C1002.08 1616.75 1002 1626 1002 1635C1002 1644.17 1001.83 1653.17 1001.5 1662C1001.17 1670.83 1001.83 1678.75 1003.5 1685.75C1005.17 1692.75 1008.42 1698.42 1013.25 1702.75C1018.25 1707.08 1025.92 1709.25 1036.25 1709.25C1042.42 1709.25 1049 1708.5 1056 1707C1063 1705.33 1070.25 1703.17 1077.75 1700.5ZM938.5 1521.5C928.5 1518.83 917.833 1517 906.5 1516C895.167 1514.83 884.333 1514.25 874 1514.25C868.333 1514.25 862.917 1514.42 857.75 1514.75C852.75 1515.08 848.167 1515.5 844 1516C839.833 1516.5 836.167 1517.17 833 1518C829.833 1518.67 827.417 1519.5 825.75 1520.5C822.75 1522 819.25 1525.67 815.25 1531.5C811.25 1537.17 807.417 1544.25 803.75 1552.75C800.083 1561.25 796.917 1570.83 794.25 1581.5C791.75 1592.17 790.5 1603.17 790.5 1614.5C790.5 1625.33 792.083 1636.25 795.25 1647.25C798.417 1658.08 803 1667.83 809 1676.5C815.167 1685.17 822.667 1692.25 831.5 1697.75C840.5 1703.08 850.75 1705.75 862.25 1705.75C873.083 1705.75 882.667 1704 891 1700.5C899.333 1697 906.583 1692.25 912.75 1686.25C918.917 1680.08 924 1672.92 928 1664.75C932.167 1656.58 935.5 1647.75 938 1638.25C938 1631.25 938 1623.83 938 1616C938 1608 938 1599.25 938 1589.75C938 1580.25 938 1569.92 938 1558.75C938.167 1547.42 938.333 1535 938.5 1521.5ZM1321 1638.25C1321 1649.75 1317.92 1660.5 1311.75 1670.5C1305.75 1680.33 1297.83 1689.42 1288 1697.75C1278.17 1706.08 1267 1713.42 1254.5 1719.75C1242.17 1726.08 1229.58 1731.42 1216.75 1735.75C1203.92 1740.08 1191.5 1743.25 1179.5 1745.25C1167.5 1747.25 1157 1747.92 1148 1747.25C1140.17 1746.92 1131.92 1745.67 1123.25 1743.5C1114.75 1741.5 1107.17 1739 1100.5 1736C1094 1733 1089.08 1729.75 1085.75 1726.25C1082.58 1722.75 1082.5 1719.33 1085.5 1716C1088.5 1712.83 1091.75 1709.67 1095.25 1706.5C1098.75 1703.33 1102.92 1700.08 1107.75 1696.75C1112.58 1693.25 1118.33 1689.58 1125 1685.75C1131.67 1681.92 1139.67 1677.67 1149 1673C1146 1677.67 1145.25 1681.75 1146.75 1685.25C1148.25 1688.75 1151 1691.92 1155 1694.75C1159.17 1697.42 1164.17 1699.67 1170 1701.5C1176 1703.33 1181.83 1704.83 1187.5 1706C1193.33 1707.17 1198.58 1708 1203.25 1708.5C1208.08 1709 1211.5 1709.25 1213.5 1709.25C1219.5 1709.25 1225.42 1709 1231.25 1708.5C1237.25 1707.83 1242.58 1706.5 1247.25 1704.5C1251.92 1702.5 1255.67 1699.58 1258.5 1695.75C1261.5 1691.75 1263 1686.33 1263 1679.5C1263 1671.17 1260.67 1664.08 1256 1658.25C1251.5 1652.42 1245.5 1647.58 1238 1643.75C1230.67 1639.75 1222.42 1636.58 1213.25 1634.25C1204.08 1631.92 1194.92 1630 1185.75 1628.5C1176.75 1626.83 1168.17 1625.5 1160 1624.5C1152 1623.33 1145.42 1622.08 1140.25 1620.75C1131.92 1618.58 1124.92 1615.75 1119.25 1612.25C1113.75 1608.58 1109.25 1604.58 1105.75 1600.25C1102.42 1595.75 1100 1591 1098.5 1586C1097 1581 1096.25 1576 1096.25 1571C1096.25 1559.83 1099.25 1549.5 1105.25 1540C1111.25 1530.5 1119.08 1521.92 1128.75 1514.25C1138.42 1506.58 1149.33 1499.83 1161.5 1494C1173.83 1488.17 1186.25 1483.25 1198.75 1479.25C1211.42 1475.25 1223.67 1472.25 1235.5 1470.25C1247.33 1468.25 1257.58 1467.25 1266.25 1467.25C1276.25 1467.25 1285.08 1467.83 1292.75 1469C1300.58 1470 1306.92 1471.25 1311.75 1472.75C1316.42 1474.25 1319.33 1476.17 1320.5 1478.5C1321.83 1480.83 1321.83 1483.5 1320.5 1486.5C1319.33 1489.5 1317 1492.75 1313.5 1496.25C1310 1499.75 1305.83 1503.33 1301 1507C1297.17 1510 1293.08 1512.83 1288.75 1515.5C1284.92 1517.83 1280.67 1520.25 1276 1522.75C1271.33 1525.08 1266.5 1527.17 1261.5 1529C1264 1525.83 1265 1523 1264.5 1520.5C1264.17 1518 1262.67 1515.75 1260 1513.75C1257.33 1511.75 1253.75 1510.08 1249.25 1508.75C1244.75 1507.25 1239.75 1506.08 1234.25 1505.25C1228.75 1504.25 1222.92 1503.58 1216.75 1503.25C1210.75 1502.75 1204.83 1502.5 1199 1502.5C1193.33 1502.5 1187.67 1502.75 1182 1503.25C1176.33 1503.58 1171.25 1504.67 1166.75 1506.5C1162.25 1508.17 1158.58 1510.83 1155.75 1514.5C1152.92 1518.17 1151.5 1523.17 1151.5 1529.5C1151.5 1534.67 1152.67 1540.08 1155 1545.75C1157.33 1551.25 1160.75 1556.5 1165.25 1561.5C1169.92 1566.33 1175.67 1570.67 1182.5 1574.5C1189.33 1578.33 1197.25 1581.08 1206.25 1582.75C1213.25 1584.08 1221 1585.08 1229.5 1585.75C1238 1586.42 1246.5 1587.25 1255 1588.25C1263.5 1589.25 1271.67 1590.67 1279.5 1592.5C1287.5 1594.33 1294.58 1597.08 1300.75 1600.75C1306.92 1604.42 1311.83 1609.25 1315.5 1615.25C1319.17 1621.25 1321 1628.92 1321 1638.25ZM1694.25 1500.5C1675.08 1509.83 1657.25 1518.17 1640.75 1525.5C1624.42 1532.67 1610 1538.75 1597.5 1543.75C1583 1549.58 1569.67 1554.75 1557.5 1559.25C1550 1562.42 1541.67 1565.67 1532.5 1569C1523.5 1572.17 1514.08 1575.33 1504.25 1578.5C1494.42 1581.5 1484.33 1584.58 1474 1587.75C1463.83 1590.75 1453.75 1593.75 1443.75 1596.75V1601.75C1443.75 1618.92 1446.42 1634.33 1451.75 1648C1457.25 1661.67 1464.83 1673.33 1474.5 1683C1484.17 1692.5 1495.75 1699.83 1509.25 1705C1522.75 1710 1537.67 1712.5 1554 1712.5C1562.5 1712.5 1570.92 1711.83 1579.25 1710.5C1587.75 1709.17 1595.75 1707.42 1603.25 1705.25C1610.92 1702.92 1618.08 1700.17 1624.75 1697C1631.42 1693.83 1637.33 1690.42 1642.5 1686.75C1629.83 1698.08 1616.75 1707.58 1603.25 1715.25C1589.92 1722.92 1576.5 1729.17 1563 1734C1549.67 1738.67 1536.42 1742.08 1523.25 1744.25C1510.25 1746.42 1497.75 1747.58 1485.75 1747.75C1473.58 1748.08 1461.58 1746.17 1449.75 1742C1438.08 1738 1427.42 1731.83 1417.75 1723.5C1408.08 1715.17 1399.92 1704.83 1393.25 1692.5C1386.58 1680 1382.25 1665.5 1380.25 1649C1379.42 1643.17 1379 1637.58 1379 1632.25C1379.17 1626.75 1379.75 1621.33 1380.75 1616C1374.92 1618.17 1369.58 1620.17 1364.75 1622C1360.08 1623.83 1356.25 1625.67 1353.25 1627.5C1358.08 1624.17 1362.92 1621.08 1367.75 1618.25C1372.58 1615.25 1377.33 1612.5 1382 1610C1384.83 1597 1389.67 1584.58 1396.5 1572.75C1403.5 1560.92 1411.83 1549.92 1421.5 1539.75C1431.33 1529.58 1442.25 1520.42 1454.25 1512.25C1466.25 1503.92 1478.67 1496.83 1491.5 1491C1504.5 1485.17 1517.67 1480.67 1531 1477.5C1544.33 1474.33 1557.25 1472.75 1569.75 1472.75C1578.08 1472.75 1585.08 1474 1590.75 1476.5C1596.58 1479 1600.5 1483.42 1602.5 1489.75C1603.5 1496.42 1601.08 1503.58 1595.25 1511.25C1592.75 1514.58 1589.33 1518.17 1585 1522C1580.83 1525.67 1575.33 1529.58 1568.5 1533.75C1561.83 1537.92 1553.75 1542.25 1544.25 1546.75C1534.92 1551.25 1523.83 1555.75 1511 1560.25L1694.25 1500.5ZM1496 1561.25C1503.17 1558.08 1509.58 1554.67 1515.25 1551C1521.08 1547.33 1525.58 1543.5 1528.75 1539.5C1532.08 1535.5 1533.83 1531.33 1534 1527C1534.17 1522.67 1532.42 1518.08 1528.75 1513.25C1526.25 1509.58 1522.75 1507.08 1518.25 1505.75C1513.92 1504.25 1509.42 1503.5 1504.75 1503.5C1500.42 1503.5 1496.25 1504 1492.25 1505C1488.25 1505.83 1484.75 1507 1481.75 1508.5C1479.75 1509.67 1477 1512.25 1473.5 1516.25C1470 1520.08 1466.42 1525.17 1462.75 1531.5C1459.08 1537.67 1455.58 1544.92 1452.25 1553.25C1449.08 1561.42 1446.75 1570.42 1445.25 1580.25C1455.75 1576.42 1465.25 1573 1473.75 1570C1482.25 1567 1489.67 1564.08 1496 1561.25Z" fill="black"/>
</g>
<g filter="url(#filter2_d_340_5)">
<path d="M939.25 1338.25C937.75 1338.25 935.667 1339.25 933 1341.25C930.5 1343.42 927.833 1345.83 925 1348.5C922.167 1351.33 919.5 1354 917 1356.5C914.667 1359.17 913 1360.92 912 1361.75C910.833 1362.75 909 1364.42 906.5 1366.75C904.167 1369.25 901.583 1371.83 898.75 1374.5C895.917 1377.17 893.167 1379.5 890.5 1381.5C887.833 1383.5 885.75 1384.5 884.25 1384.5H698C702.333 1380.67 706.333 1377.17 710 1374C713.167 1371.17 716.167 1368.5 719 1366C722 1363.67 724 1362.08 725 1361.25C726.167 1360.25 727.917 1358.5 730.25 1356C732.75 1353.5 735.333 1350.92 738 1348.25C740.833 1345.58 743.583 1343.25 746.25 1341.25C748.917 1339.25 751.083 1338.25 752.75 1338.25H939.25ZM1260.75 1338.25C1259.25 1338.25 1257.17 1339.25 1254.5 1341.25C1252 1343.42 1249.33 1345.83 1246.5 1348.5C1243.67 1351.33 1241 1354 1238.5 1356.5C1236.17 1359.17 1234.5 1360.92 1233.5 1361.75C1232.33 1362.75 1230.5 1364.42 1228 1366.75C1225.67 1369.25 1223.08 1371.83 1220.25 1374.5C1217.42 1377.17 1214.67 1379.5 1212 1381.5C1209.33 1383.5 1207.25 1384.5 1205.75 1384.5H1019.5C1023.83 1380.67 1027.83 1377.17 1031.5 1374C1034.67 1371.17 1037.67 1368.5 1040.5 1366C1043.5 1363.67 1045.5 1362.08 1046.5 1361.25C1047.67 1360.25 1049.42 1358.5 1051.75 1356C1054.25 1353.5 1056.83 1350.92 1059.5 1348.25C1062.33 1345.58 1065.08 1343.25 1067.75 1341.25C1070.42 1339.25 1072.58 1338.25 1074.25 1338.25H1260.75ZM1582.25 1338.25C1580.75 1338.25 1578.67 1339.25 1576 1341.25C1573.5 1343.42 1570.83 1345.83 1568 1348.5C1565.17 1351.33 1562.5 1354 1560 1356.5C1557.67 1359.17 1556 1360.92 1555 1361.75C1553.83 1362.75 1552 1364.42 1549.5 1366.75C1547.17 1369.25 1544.58 1371.83 1541.75 1374.5C1538.92 1377.17 1536.17 1379.5 1533.5 1381.5C1530.83 1383.5 1528.75 1384.5 1527.25 1384.5H1341C1345.33 1380.67 1349.33 1377.17 1353 1374C1356.17 1371.17 1359.17 1368.5 1362 1366C1365 1363.67 1367 1362.08 1368 1361.25C1369.17 1360.25 1370.92 1358.5 1373.25 1356C1375.75 1353.5 1378.33 1350.92 1381 1348.25C1383.83 1345.58 1386.58 1343.25 1389.25 1341.25C1391.92 1339.25 1394.08 1338.25 1395.75 1338.25H1582.25ZM1903.75 1338.25C1902.25 1338.25 1900.17 1339.25 1897.5 1341.25C1895 1343.42 1892.33 1345.83 1889.5 1348.5C1886.67 1351.33 1884 1354 1881.5 1356.5C1879.17 1359.17 1877.5 1360.92 1876.5 1361.75C1875.33 1362.75 1873.5 1364.42 1871 1366.75C1868.67 1369.25 1866.08 1371.83 1863.25 1374.5C1860.42 1377.17 1857.67 1379.5 1855 1381.5C1852.33 1383.5 1850.25 1384.5 1848.75 1384.5H1662.5C1666.83 1380.67 1670.83 1377.17 1674.5 1374C1677.67 1371.17 1680.67 1368.5 1683.5 1366C1686.5 1363.67 1688.5 1362.08 1689.5 1361.25C1690.67 1360.25 1692.42 1358.5 1694.75 1356C1697.25 1353.5 1699.83 1350.92 1702.5 1348.25C1705.33 1345.58 1708.08 1343.25 1710.75 1341.25C1713.42 1339.25 1715.58 1338.25 1717.25 1338.25H1903.75ZM2225.25 1338.25C2223.75 1338.25 2221.67 1339.25 2219 1341.25C2216.5 1343.42 2213.83 1345.83 2211 1348.5C2208.17 1351.33 2205.5 1354 2203 1356.5C2200.67 1359.17 2199 1360.92 2198 1361.75C2196.83 1362.75 2195 1364.42 2192.5 1366.75C2190.17 1369.25 2187.58 1371.83 2184.75 1374.5C2181.92 1377.17 2179.17 1379.5 2176.5 1381.5C2173.83 1383.5 2171.75 1384.5 2170.25 1384.5H1984C1988.33 1380.67 1992.33 1377.17 1996 1374C1999.17 1371.17 2002.17 1368.5 2005 1366C2008 1363.67 2010 1362.08 2011 1361.25C2012.17 1360.25 2013.92 1358.5 2016.25 1356C2018.75 1353.5 2021.33 1350.92 2024 1348.25C2026.83 1345.58 2029.58 1343.25 2032.25 1341.25C2034.92 1339.25 2037.08 1338.25 2038.75 1338.25H2225.25ZM2546.75 1338.25C2545.25 1338.25 2543.17 1339.25 2540.5 1341.25C2538 1343.42 2535.33 1345.83 2532.5 1348.5C2529.67 1351.33 2527 1354 2524.5 1356.5C2522.17 1359.17 2520.5 1360.92 2519.5 1361.75C2518.33 1362.75 2516.5 1364.42 2514 1366.75C2511.67 1369.25 2509.08 1371.83 2506.25 1374.5C2503.42 1377.17 2500.67 1379.5 2498 1381.5C2495.33 1383.5 2493.25 1384.5 2491.75 1384.5H2305.5C2309.83 1380.67 2313.83 1377.17 2317.5 1374C2320.67 1371.17 2323.67 1368.5 2326.5 1366C2329.5 1363.67 2331.5 1362.08 2332.5 1361.25C2333.67 1360.25 2335.42 1358.5 2337.75 1356C2340.25 1353.5 2342.83 1350.92 2345.5 1348.25C2348.33 1345.58 2351.08 1343.25 2353.75 1341.25C2356.42 1339.25 2358.58 1338.25 2360.25 1338.25H2546.75ZM2868.25 1338.25C2866.75 1338.25 2864.67 1339.25 2862 1341.25C2859.5 1343.42 2856.83 1345.83 2854 1348.5C2851.17 1351.33 2848.5 1354 2846 1356.5C2843.67 1359.17 2842 1360.92 2841 1361.75C2839.83 1362.75 2838 1364.42 2835.5 1366.75C2833.17 1369.25 2830.58 1371.83 2827.75 1374.5C2824.92 1377.17 2822.17 1379.5 2819.5 1381.5C2816.83 1383.5 2814.75 1384.5 2813.25 1384.5H2627C2631.33 1380.67 2635.33 1377.17 2639 1374C2642.17 1371.17 2645.17 1368.5 2648 1366C2651 1363.67 2653 1362.08 2654 1361.25C2655.17 1360.25 2656.92 1358.5 2659.25 1356C2661.75 1353.5 2664.33 1350.92 2667 1348.25C2669.83 1345.58 2672.58 1343.25 2675.25 1341.25C2677.92 1339.25 2680.08 1338.25 2681.75 1338.25H2868.25ZM3189.75 1338.25C3188.25 1338.25 3186.17 1339.25 3183.5 1341.25C3181 1343.42 3178.33 1345.83 3175.5 1348.5C3172.67 1351.33 3170 1354 3167.5 1356.5C3165.17 1359.17 3163.5 1360.92 3162.5 1361.75C3161.33 1362.75 3159.5 1364.42 3157 1366.75C3154.67 1369.25 3152.08 1371.83 3149.25 1374.5C3146.42 1377.17 3143.67 1379.5 3141 1381.5C3138.33 1383.5 3136.25 1384.5 3134.75 1384.5H2948.5C2952.83 1380.67 2956.83 1377.17 2960.5 1374C2963.67 1371.17 2966.67 1368.5 2969.5 1366C2972.5 1363.67 2974.5 1362.08 2975.5 1361.25C2976.67 1360.25 2978.42 1358.5 2980.75 1356C2983.25 1353.5 2985.83 1350.92 2988.5 1348.25C2991.33 1345.58 2994.08 1343.25 2996.75 1341.25C2999.42 1339.25 3001.58 1338.25 3003.25 1338.25H3189.75ZM3511.25 1338.25C3509.75 1338.25 3507.67 1339.25 3505 1341.25C3502.5 1343.42 3499.83 1345.83 3497 1348.5C3494.17 1351.33 3491.5 1354 3489 1356.5C3486.67 1359.17 3485 1360.92 3484 1361.75C3482.83 1362.75 3481 1364.42 3478.5 1366.75C3476.17 1369.25 3473.58 1371.83 3470.75 1374.5C3467.92 1377.17 3465.17 1379.5 3462.5 1381.5C3459.83 1383.5 3457.75 1384.5 3456.25 1384.5H3270C3274.33 1380.67 3278.33 1377.17 3282 1374C3285.17 1371.17 3288.17 1368.5 3291 1366C3294 1363.67 3296 1362.08 3297 1361.25C3298.17 1360.25 3299.92 1358.5 3302.25 1356C3304.75 1353.5 3307.33 1350.92 3310 1348.25C3312.83 1345.58 3315.58 1343.25 3318.25 1341.25C3320.92 1339.25 3323.08 1338.25 3324.75 1338.25H3511.25Z" fill="black"/>
</g>
<defs>
<filter id="filter0_d_340_5" x="567" y="456.5" width="3655.75" height="951.5" filterUnits="userSpaceOnUse" color-interpolation-filters="sRGB">
<feFlood flood-opacity="0" result="BackgroundImageFix"/>
<feColorMatrix in="SourceAlpha" type="matrix" values="0 0 0 0 0 0 0 0 0 0 0 0 0 0 0 0 0 0 127 0" result="hardAlpha"/>
<feOffset dy="4"/>
<feGaussianBlur stdDeviation="2"/>
<feComposite in2="hardAlpha" operator="out"/>
<feColorMatrix type="matrix" values="0 0 0 0 1 0 0 0 0 1 0 0 0 0 1 0 0 0 0.25 0"/>
<feBlend mode="normal" in2="BackgroundImageFix" result="effect1_dropShadow_340_5"/>
<feBlend mode="normal" in="SourceGraphic" in2="effect1_dropShadow_340_5" result="shape"/>
</filter>
<filter id="filter1_d_340_5" x="29" y="996.5" width="1669.25" height="792.5" filterUnits="userSpaceOnUse" color-interpolation-filters="sRGB">
<feFlood flood-opacity="0" result="BackgroundImageFix"/>
<feColorMatrix in="SourceAlpha" type="matrix" values="0 0 0 0 0 0 0 0 0 0 0 0 0 0 0 0 0 0 127 0" result="hardAlpha"/>
<feOffset dy="4"/>
<feGaussianBlur stdDeviation="2"/>
<feComposite in2="hardAlpha" operator="out"/>
<feColorMatrix type="matrix" values="0 0 0 0 1 0 0 0 0 1 0 0 0 0 1 0 0 0 0.25 0"/>
<feBlend mode="normal" in2="BackgroundImageFix" result="effect1_dropShadow_340_5"/>
<feBlend mode="normal" in="SourceGraphic" in2="effect1_dropShadow_340_5" result="shape"/>
</filter>
<filter id="filter2_d_340_5" x="694" y="1338.25" width="2821.25" height="54.25" filterUnits="userSpaceOnUse" color-interpolation-filters="sRGB">
<feFlood flood-opacity="0" result="BackgroundImageFix"/>
<feColorMatrix in="SourceAlpha" type="matrix" values="0 0 0 0 0 0 0 0 0 0 0 0 0 0 0 0 0 0 127 0" result="hardAlpha"/>
<feOffset dy="4"/>
<feGaussianBlur stdDeviation="2"/>
<feComposite in2="hardAlpha" operator="out"/>
<feColorMatrix type="matrix" values="0 0 0 0 1 0 0 0 0 1 0 0 0 0 1 0 0 0 0.25 0"/>
<feBlend mode="normal" in2="BackgroundImageFix" result="effect1_dropShadow_340_5"/>
<feBlend mode="normal" in="SourceGraphic" in2="effect1_dropShadow_340_5" result="shape"/>
</filter>
</defs>
</svg>
